<svg xmlns="http://www.w3.org/2000/svg" viewBox="0 0 132 132">
  <rect width="132" height="132" stroke-width="0" stroke="#1e1e1e" stroke-opacity="1" fill="#fbfbfb" fill-opacity="1" x="0" y="0" rx="50%" ry="50%"></rect>
  <g transform="translate(10 -27)">
    <path stroke="none" fill="#4483ea" d="M17.61 110.11L17.61 110.11L17.61 110.11Q17.61 101.43 19.65 93.06L19.65 93.06L19.65 93.06Q21.70 84.69 25.42 77.19L25.42 77.19L25.42 77.19Q29.14 69.69 34.29 63.43L34.29 63.43L34.29 63.43Q39.43 57.16 45.57 52.58L45.57 52.58L45.57 52.58Q51.71 47.99 58.65 45.45L58.65 45.45L58.65 45.45Q65.60 42.90 72.91 42.90L72.91 42.90L72.91 42.90Q81.47 42.90 86.24 46.50L86.24 46.50L86.24 46.50Q91.02 50.10 91.02 56.54L91.02 56.54L91.02 56.54Q91.02 59.02 90.33 61.63L90.33 61.63L90.33 61.63Q89.65 64.23 88.35 66.77L88.35 66.77L88.35 66.77Q87.05 69.32 85.31 71.67L85.31 71.67L85.31 71.67Q83.58 74.03 81.47 75.76L81.47 75.76L81.47 75.76Q78.24 75.27 75.89 72.85L75.89 72.85L75.89 72.85Q73.53 70.43 72.91 67.21L72.91 67.21L72.91 67.21Q77.25 63.61 79.79 59.71L79.79 59.71L79.79 59.71Q82.34 55.80 82.34 52.58L82.34 52.58L82.34 52.58Q82.34 47.12 75.52 47.12L75.52 47.12L75.52 47.12Q72.66 47.12 69.63 48.30L69.63 48.30L69.63 48.30Q66.59 49.48 63.49 51.58L63.49 51.58L63.49 51.58Q60.39 53.69 57.47 56.67L57.47 56.67L57.47 56.67Q54.56 59.64 52.08 63.24L52.08 63.24L52.08 63.24Q34.84 88.04 34.84 113.96L34.84 113.96L34.84 113.96Q34.84 123.13 37.70 128.71L37.70 128.71L37.70 128.71Q40.55 134.29 45.26 135.28L45.26 135.28L45.26 135.28Q50.59 134.04 58.78 128.46L58.78 128.46L58.78 128.46Q66.96 122.88 76.63 113.96L76.63 113.96L76.63 113.96Q77.87 115.20 78.12 116.56L78.12 116.56L78.12 116.56Q74.52 121.27 70.68 125.61L70.68 125.61L70.68 125.61Q66.84 129.95 63.05 133.55L63.05 133.55L63.05 133.55Q59.27 137.14 55.61 139.87L55.61 139.87L55.61 139.87Q51.96 142.60 48.86 144.09L48.86 144.09L48.86 144.09Q33.48 143.84 25.54 135.28L25.54 135.28L25.54 135.28Q17.61 126.73 17.61 110.11Z" transform="rotate(0 54.314998626708984 93.49499893188477)"></path>
  </g>
</svg>