<svg xmlns="http://www.w3.org/2000/svg" class="shapes" viewbox="0 0 1440 798">
  <path class="javascript" d="M11.4 10h2.7v7.6c0 3.4-1.6 4.6-4.3 4.6-.6 0-1.5-.1-2-.3l.3-2.2c.4.2.9.3 1.4.3 1.1 0 1.9-.5 1.9-2.4V10zm5.1 9.2c.7.4 1.9.8 3 .8 1.3 0 1.9-.5 1.9-1.3s-.6-1.2-2-1.7c-2-.7-3.3-1.8-3.3-3.6 0-2.1 1.7-3.6 4.6-3.6 1.4 0 2.4.3 3.1.6l-.6 2.2c-.5-.2-1.3-.6-2.5-.6s-1.8.5-1.8 1.2c0 .8.7 1.1 2.2 1.7 2.1.8 3.1 1.9 3.1 3.6 0 2-1.6 3.7-4.9 3.7-1.4 0-2.7-.4-3.4-.7l.6-2.3z" fill="none"></path>
  <path class="sass" d="M18 17.3c-1.1.7-2.4 1.5-3.5 2.2.4.9.4 1.8.1 2.7-.5 1.6-1.7 2.5-3.2 2.7-.4.1-.8 0-1.1-.1-.4-.1-.6-.4-.7-.7-.4-.9-.3-1.7.3-2.4.4-.4.8-.9 1.3-1.2.5-.4 1.2-.7 1.8-1.1.1-.1.2-.1.4-.2-.3-.2-.4-.4-.6-.4-.8-.5-1.6-1.1-2.3-1.8-.4-.4-.8-.8-1.1-1.3-.9-.7-1-1.7-.5-2.6.4-1 1.1-1.8 1.8-2.5 1.6-1.4 3.4-2.4 5.4-3.1 1.4-.5 2.8-.7 4.2-.5.4.2 1 .3 1.4.5 1.5.6 2.1 1.8 1.6 3.4-.4 1.3-1.2 2.4-2.4 3.1-1.6 1-3.2 1.4-5.1 1.1-.6-.1-1.1-.4-1.6-.9-.1-.2-.2-.4-.3-.5 0 0 0-.1.1-.2 0 0 .1 0 .2.1.8.8 1.7.9 2.6.7 1.7-.3 3.2-.9 4.3-2.2.4-.5.8-1.1 1-1.8.2-.8-.2-1.4-.9-1.8-.8-.4-1.6-.4-2.4-.3-2 .3-3.8 1.1-5.4 2.1-.9.5-1.7 1.1-2.3 1.9-.3.4-.5.8-.7 1.2-.3.8-.2 1.6.4 2.2.4.4.8.8 1.2 1.1.6.5 1.3 1.1 1.9 1.6.1 0 .2.1.3 0 .3-.2.5-.3.8-.4.9-.5 1.8-.9 2.8-1.1 0 .4.1.4.2.5 0-.1 0-.1 0 0zm-4.3 2.5c-.9.5-1.6 1-2.3 1.7-.4.4-.6.8-.7 1.3-.1.6.3.9.9.8.8-.2 1.4-.7 1.8-1.3.5-.8.5-1.5.3-2.5z" fill="none"></path>
  <path class="react" d="M22 19.4c.1 1.1.2 2.1.2 3.2 0 1.3-.7 2.2-1.7 2.3-.5.1-1.1 0-1.6-.2-1-.5-1.9-1.2-2.9-1.8-.5.4-1 .8-1.6 1.2-.3.2-.7.4-1 .5-1.8.8-3.3-.1-3.4-2.1 0-1 .1-2.1.2-3.2-.6-.2-1.2-.4-1.8-.8-.6-.3-1.1-.7-1.6-1.2-.9-.9-.8-2 .1-2.9.8-.9 1.9-1.3 3-1.7.1 0 .3-.1.4-.1-.1-.7-.2-1.5-.3-2.2 0-.6.1-1.3.2-1.9.3-1.1 1.3-1.6 2.5-1.3 1.2.3 2.1 1 2.9 1.7.2.1.3.3.4.4.8-.6 1.6-1.2 2.5-1.7.6-.4 1.3-.6 2-.4 1 .2 1.6 1.1 1.7 2.4v1.6c0 .5-.2 1-.3 1.6.6.2 1.1.4 1.7.7.8.4 1.6.8 2.1 1.6.5.7.5 1.5 0 2.2-.5.8-1.3 1.2-2.1 1.6-.6.1-1.1.3-1.6.5zm-5.8-.1c.3 0 .8-.1 1.2-.1.3 0 .5-.1.7-.4.5-.8 1-1.6 1.4-2.5.1-.2.1-.5 0-.6-.5-.9-1-1.7-1.5-2.5-.1-.2-.3-.3-.5-.3-.9 0-1.7 0-2.6-.1-.5 0-.9.2-1.2.7-.2.3-.4.6-.6 1-1.1 2-1.1 1.2 0 3.2 1.2 1.9.6 1.5 3.1 1.6zm-5.8-.8c.3-.8.6-1.6.9-2.3v-.4c-.3-.8-.6-1.5-.9-2.3-1 .3-2 .7-2.8 1.3-.9.7-.9 1.6 0 2.3.8.8 1.8 1.1 2.8 1.4zm11.3-5.1c-.4.9-.7 1.7-1 2.5 0 .1-.1.2 0 .2.3.8.6 1.6 1 2.6.9-.5 1.9-.9 2.7-1.4 1.1-.7 1.1-1.7 0-2.4-.8-.7-1.8-1-2.7-1.5zm-10.7-1c.9-.1 1.7-.2 2.5-.4.1 0 .2-.1.2-.1.5-.7 1-1.3 1.6-2-.8-.7-1.6-1.4-2.6-1.8-1.1-.4-1.8 0-2 1.2-.1 1 .1 2 .3 3.1zm10 0c0-.1.1-.3.1-.4.2-1 .4-2.1 0-3.1-.2-.7-.7-1-1.3-.9-1.3.2-2.2 1.1-3.1 1.9.5.7 1 1.3 1.5 1.9l.3.3c.8.1 1.6.2 2.5.3zm-10 7.2c-.2 1.1-.5 2.1-.2 3.2.2 1 .9 1.4 1.9 1.1 1.1-.3 1.9-1.1 2.7-1.8-.5-.7-1-1.3-1.6-2-.1-.1-.2-.2-.3-.2-.8 0-1.6-.1-2.5-.3zm5.6 2.5c.6.8 1.8 1.6 2.6 1.9 1 .3 1.7 0 1.9-1.1.2-1.1 0-2.1-.2-3.2-.9.1-1.8.1-2.6.4-.6.3-.9 1-1.3 1.5-.1.2-.2.3-.4.5zm.6-10.2c-.4-.5-.8-.9-1.2-1.4-.4.5-.7.9-1.2 1.4h2.4zm0 8.2h-2.3c.4.5.8.9 1.2 1.4.3-.5.7-.9 1.1-1.4zm-4.1-1c-.4-.7-.8-1.3-1.2-2.1-.2.6-.4 1.1-.6 1.7.5.2 1.1.3 1.8.4zm7-2.1l-1.2 2.1c.7-.1 1.2-.2 1.8-.3-.1-.6-.3-1.1-.6-1.8zm-8.2-2l1.2-2.1c-.7.1-1.2.2-1.8.3.2.7.3 1.2.6 1.8zm7-2.1c.2.4.4.7.6 1 .2.3.4.6.6 1 .2-.6.4-1.2.6-1.7-.6 0-1.1-.1-1.8-.3z" fill="none"></path>
  <path class="xml" d="M8 15l6-5.6V12l-4.5 4 4.5 4v2.6L8 17v-2zm16 2.1l-6 5.6V20l4.6-4-4.6-4V9.3l6 5.6v2.2z" fill="none"></path>
  <path class="braces" d="M7.5 15.1c1.5 0 1.7-.8 1.7-1.5 0-.6-.1-1.1-.1-1.7S9 10.7 9 10.2c0-2.1 1.3-3 3.4-3h.8v1.9h-.4c-1 0-1.3.6-1.3 1.6 0 .4.1.8.1 1.3 0 .4.1.9.1 1.5 0 1.7-.7 2.3-1.9 2.6 1.2.3 1.9.9 1.9 2.6 0 .6-.1 1.1-.1 1.5 0 .4-.1.9-.1 1.2 0 1 .3 1.6 1.3 1.6h.4v1.9h-.8c-2 0-3.3-.8-3.3-3 0-.6 0-1.1.1-1.7.1-.6.1-1.2.1-1.7 0-.6-.2-1.5-1.7-1.5l-.1-1.9zm17 1.7c-1.5 0-1.7.9-1.7 1.5s.1 1.1.1 1.7c.1.6.1 1.2.1 1.7 0 2.2-1.4 3-3.4 3h-.8V23h.4c1 0 1.3-.6 1.3-1.6 0-.4 0-.8-.1-1.2 0-.5-.1-1-.1-1.5 0-1.7.7-2.3 1.9-2.6-1.2-.3-1.9-.9-1.9-2.6 0-.6.1-1.1.1-1.5.1-.5.1-.9.1-1.3 0-1-.4-1.5-1.3-1.6h-.4V7.2h.8c2.1 0 3.4.9 3.4 3 0 .6-.1 1.1-.1 1.7-.1.6-.1 1.2-.1 1.7 0 .7.2 1.5 1.7 1.5v1.7z" fill="none"></path>
  <g class="redux" fill="none" transform="scale(0.25) translate(12, 12)"><path d="M65.6 65.4c2.9-.3 5.1-2.8 5-5.8-.1-3-2.6-5.4-5.6-5.4h-.2c-3.1.1-5.5 2.7-5.4 5.8.1 1.5.7 2.8 1.6 3.7-3.4 6.7-8.6 11.6-16.4 15.7-5.3 2.8-10.8 3.8-16.3 3.1-4.5-.6-8-2.6-10.2-5.9-3.2-4.9-3.5-10.2-.8-15.5 1.9-3.8 4.9-6.6 6.8-8-.4-1.3-1-3.5-1.3-5.1-14.5 10.5-13 24.7-8.6 31.4 3.3 5 10 8.1 17.4 8.1 2 0 4-.2 6-.7 12.8-2.5 22.5-10.1 28-21.4z"/><path d="M83.2 53c-7.6-8.9-18.8-13.8-31.6-13.8H50c-.9-1.8-2.8-3-4.9-3h-.2c-3.1.1-5.5 2.7-5.4 5.8.1 3 2.6 5.4 5.6 5.4h.2c2.2-.1 4.1-1.5 4.9-3.4H52c7.6 0 14.8 2.2 21.3 6.5 5 3.3 8.6 7.6 10.6 12.8 1.7 4.2 1.6 8.3-.2 11.8-2.8 5.3-7.5 8.2-13.7 8.2-4 0-7.8-1.2-9.8-2.1-1.1 1-3.1 2.6-4.5 3.6 4.3 2 8.7 3.1 12.9 3.1 9.6 0 16.7-5.3 19.4-10.6 2.9-5.8 2.7-15.8-4.8-24.3z"/><path d="M32.4 67.1c.1 3 2.6 5.4 5.6 5.4h.2c3.1-.1 5.5-2.7 5.4-5.8-.1-3-2.6-5.4-5.6-5.4h-.2c-.2 0-.5 0-.7.1-4.1-6.8-5.8-14.2-5.2-22.2.4-6 2.4-11.2 5.9-15.5 2.9-3.7 8.5-5.5 12.3-5.6 10.6-.2 15.1 13 15.4 18.3 1.3.3 3.5 1 5 1.5-1.2-16.2-11.2-24.6-20.8-24.6-9 0-17.3 6.5-20.6 16.1-4.6 12.8-1.6 25.1 4 34.8-.5.7-.8 1.8-.7 2.9z"/></g>
  <!-- simpleicons -->
  <path class="gatsby" fill="none" d="M12.001.007C5.326.007.007 5.326.007 12S5.326 23.995 12 23.995s11.994-5.319 11.994-11.994S18.676.007 12.001.007zM2.614 12.105l9.283 9.283c-5.111 0-9.283-4.172-9.283-9.283zm11.473 9.074L2.823 9.915C3.76 5.743 7.516 2.614 12 2.614a9.476 9.476 0 0 1 7.614 3.86L18.259 7.62a7.657 7.657 0 0 0-6.362-3.337A7.555 7.555 0 0 0 4.7 9.393l9.804 9.805c2.4-.835 4.276-2.92 4.798-5.424h-4.068v-1.773h6.154c0 4.485-3.129 8.24-7.301 9.178z"/>
  <path class="javascript" fill="none" d="M0 0h24v24H0V0zm22.034 18.276c-.175-1.095-.888-2.015-3.003-2.873-.736-.345-1.554-.585-1.797-1.14-.091-.33-.105-.51-.046-.705.15-.646.915-.84 1.515-.66.39.12.75.42.976.9 1.034-.676 1.034-.676 1.755-1.125-.27-.42-.404-.601-.586-.78-.63-.705-1.469-1.065-2.834-1.034l-.705.089c-.676.165-1.32.525-1.71 1.005-1.14 1.291-.811 3.541.569 4.471 1.365 1.02 3.361 1.244 3.616 2.205.24 1.17-.87 1.545-1.966 1.41-.811-.18-1.26-.586-1.755-1.336l-1.83 1.051c.21.48.45.689.81 1.109 1.74 1.756 6.09 1.666 6.871-1.004.029-.09.24-.705.074-1.65l.046.067zm-8.983-7.245h-2.248c0 1.938-.009 3.864-.009 5.805 0 1.232.063 2.363-.138 2.711-.33.689-1.18.601-1.566.48-.396-.196-.597-.466-.83-.855-.063-.105-.11-.196-.127-.196l-1.825 1.125c.305.63.75 1.172 1.324 1.517.855.51 2.004.675 3.207.405.783-.226 1.458-.691 1.811-1.411.51-.93.402-2.07.397-3.346.012-2.054 0-4.109 0-6.179l.004-.056z"/>
  <path class="graphql" fill="none" d="M14.051 2.751l4.935 2.85c.816-.859 2.173-.893 3.032-.077.148.14.274.301.377.477.589 1.028.232 2.339-.796 2.928-.174.1-.361.175-.558.223v5.699c1.146.273 1.854 1.423 1.58 2.569-.048.204-.127.4-.232.581-.592 1.023-1.901 1.374-2.927.782-.196-.113-.375-.259-.526-.429l-4.905 2.832c.372 1.124-.238 2.335-1.361 2.706-.217.071-.442.108-.67.108-1.181.001-2.139-.955-2.14-2.136 0-.205.029-.41.088-.609l-4.936-2.847c-.816.854-2.171.887-3.026.07-.854-.816-.886-2.171-.07-3.026.283-.297.646-.506 1.044-.603l.001-5.699c-1.15-.276-1.858-1.433-1.581-2.584.047-.198.123-.389.224-.566.592-1.024 1.902-1.374 2.927-.782.177.101.339.228.48.377l4.938-2.85C9.613 1.612 10.26.423 11.39.088 11.587.029 11.794 0 12 0c1.181-.001 2.139.954 2.14 2.134.001.209-.03.418-.089.617zm-.515.877c-.019.021-.037.039-.058.058l6.461 11.19c.026-.009.056-.016.082-.023V9.146c-1.145-.283-1.842-1.442-1.558-2.588.006-.024.012-.049.019-.072l-4.946-2.858zm-3.015.059l-.06-.06-4.946 2.852c.327 1.135-.327 2.318-1.461 2.645-.026.008-.051.014-.076.021v5.708l.084.023 6.461-11.19-.002.001zm2.076.507c-.39.112-.803.112-1.192 0l-6.46 11.189c.294.283.502.645.6 1.041h12.911c.097-.398.307-.761.603-1.044L12.597 4.194zm.986 16.227l4.913-2.838c-.015-.047-.027-.094-.038-.142H5.542l-.021.083 4.939 2.852c.388-.404.934-.653 1.54-.653.627 0 1.19.269 1.583.698z"/>
  <path class="codecov" fill="none" d="M12.007.48C5.391.485.005 5.831 0 12.399v.03l2.042 1.191.028-.019a5.821 5.821 0 0 1 3.308-1.02c.371 0 .734.034 1.086.1l-.036-.006a5.69 5.69 0 0 1 2.874 1.431l-.004-.003.35.326.198-.434c.192-.42.414-.814.66-1.173.099-.144.208-.29.332-.446l.205-.257-.252-.211a8.33 8.33 0 0 0-3.836-1.807l-.052-.008a8.566 8.566 0 0 0-4.081.251l.061-.016c.971-4.257 4.714-7.224 9.133-7.227a9.31 9.31 0 0 1 6.601 2.713 9.197 9.197 0 0 1 2.508 4.499 8.386 8.386 0 0 0-2.498-.379h-.154c-.356.006-.7.033-1.037.078l.045-.005-.042.006a8.104 8.104 0 0 0-.39.06c-.057.01-.114.022-.17.033a8.103 8.103 0 0 0-.392.089l-.138.035a9.21 9.21 0 0 0-.483.144l-.029.01c-.355.12-.709.268-1.051.439l-.027.014c-.152.076-.305.16-.469.256l-.036.022a8.217 8.217 0 0 0-2.108 1.801l-.011.013-.075.092a8.346 8.346 0 0 0-.378.503c-.088.13-.177.269-.288.452l-.06.104a8.986 8.986 0 0 0-.234.432l-.016.029c-.17.341-.317.698-.44 1.063l-.017.053a8.053 8.053 0 0 0-.411 2.717v-.007l.001.112c.006.158.013.295.023.431l-.002-.037a11.677 11.677 0 0 0 .042.412l.005.042.013.103c.018.127.038.252.062.378.241 1.266.845 2.532 1.745 3.66l.041.051.042-.05c.359-.424 1.249-1.77 1.325-2.577l.001-.015-.007-.013a5.56 5.56 0 0 1-.64-2.595v-.001c0-3.016 2.371-5.521 5.397-5.702l.199-.007a5.93 5.93 0 0 1 3.47 1.025l.028.019 2.041-1.187v-.03a11.771 11.771 0 0 0-3.511-8.424A11.963 11.963 0 0 0 12.008.48z"/>
  <path class="storybook" fill="none" d="M16.34.24l-.12 2.71a.18.18 0 0 0 .29.15l1.06-.8.9.7a.18.18 0 0 0 .28-.14L18.65.1l1.33-.1a1.2 1.2 0 0 1 1.28 1.2v21.6A1.2 1.2 0 0 1 20 24l-16.1-.72a1.2 1.2 0 0 1-1.15-1.16L2 2.32a1.2 1.2 0 0 1 1.13-1.27l13.2-.83.01.02zM13.27 9.3c0 .47 3.16.24 3.59-.08 0-3.2-1.72-4.89-4.86-4.89-3.15 0-4.9 1.72-4.9 4.29 0 4.45 6 4.53 6 6.96 0 .7-.32 1.1-1.05 1.1-.96 0-1.35-.49-1.3-2.16 0-.36-3.65-.48-3.77 0-.27 4.03 2.23 5.2 5.1 5.2 2.79 0 4.97-1.49 4.97-4.18 0-4.77-6.1-4.64-6.1-7 0-.97.72-1.1 1.13-1.1.45 0 1.25.07 1.19 1.87z"/>
  <path class="css" fill="none" d="M1.5 0h21l-1.91 21.563L11.977 24l-8.565-2.438L1.5 0zm17.09 4.413L5.41 4.41l.213 2.622 10.125.002-.255 2.716h-6.64l.24 2.573h6.182l-.366 3.523-2.91.804-2.956-.81-.188-2.11h-2.61l.29 3.855L12 19.288l5.373-1.53L18.59 4.414z"/>
  <path class="angular" fill="none" d="M9.93 12.645h4.134L11.996 7.74M11.996.009L.686 3.988l1.725 14.76 9.585 5.243 9.588-5.238L23.308 3.99 11.996.01zm7.058 18.297h-2.636l-1.42-3.501H8.995l-1.42 3.501H4.937l7.06-15.648 7.057 15.648z"/>
  <path class="jest" fill="none" d="M22.251 11.82a3.117 3.117 0 0 0-2.328-3.01L22.911 0H8.104L11.1 8.838a3.116 3.116 0 0 0-2.244 2.988c0 1.043.52 1.967 1.313 2.536a8.279 8.279 0 0 1-1.084 1.244 8.14 8.14 0 0 1-2.55 1.647c-.834-.563-1.195-1.556-.869-2.446a3.11 3.11 0 0 0-.91-6.08 3.117 3.117 0 0 0-3.113 3.113c0 .848.347 1.626.903 2.182-.048.097-.097.195-.146.299-.465.959-.993 2.043-1.195 3.259-.403 2.432.257 4.384 1.849 5.489A5.093 5.093 0 0 0 5.999 24c1.827 0 3.682-.917 5.475-1.807 1.279-.632 2.599-1.292 3.898-1.612.48-.118.98-.187 1.508-.264 1.07-.153 2.175-.312 3.168-.89a4.482 4.482 0 0 0 2.182-3.091c.174-.994 0-1.994-.444-2.87.298-.48.465-1.042.465-1.647zm-1.355 0c0 .965-.785 1.75-1.75 1.75a1.753 1.753 0 0 1-1.085-3.126l.007-.007c.056-.042.118-.084.18-.125 0 0 .008 0 .008-.007.028-.014.055-.035.083-.05.007 0 .014-.006.021-.006.028-.014.063-.028.097-.042.035-.014.07-.027.098-.041.007 0 .013-.007.02-.007.028-.007.056-.021.084-.028.007 0 .02-.007.028-.007.034-.007.062-.014.097-.02h.007l.104-.022c.007 0 .02 0 .028-.007.028 0 .055-.007.083-.007h.035c.035 0 .07-.007.111-.007h.09c.028 0 .05 0 .077.007h.014c.055.007.111.014.167.028a1.766 1.766 0 0 1 1.396 1.723zM10.043 1.39h10.93l-2.509 7.4c-.104.02-.208.055-.312.09l-2.64-5.385-2.648 5.35c-.104-.034-.216-.055-.327-.076l-2.494-7.38zm4.968 9.825a3.083 3.083 0 0 0-.938-1.668l1.438-2.904 1.452 2.967c-.43.43-.743.98-.868 1.605H15.01zm-3.481-1.098c.034-.007.062-.014.097-.02h.02c.029-.008.056-.008.084-.015h.028c.028 0 .049-.007.076-.007h.271c.028 0 .049.007.07.007.014 0 .02 0 .035.007.027.007.048.007.076.014.007 0 .014 0 .028.007l.097.02h.007c.028.008.056.015.083.029.007 0 .014.007.028.007.021.007.049.014.07.027.007 0 .014.007.02.007.028.014.056.021.084.035h.007a.374.374 0 0 1 .09.049h.007c.028.014.056.034.084.048.007 0 .007.007.013.007.028.014.05.035.077.049l.007.007c.083.062.16.132.236.201l.007.007a1.747 1.747 0 0 1 .48 1.209 1.752 1.752 0 0 1-3.502 0 1.742 1.742 0 0 1 1.32-1.695zm-6.838-.049c.966 0 1.751.786 1.751 1.751s-.785 1.751-1.75 1.751-1.752-.785-1.752-1.75.786-1.752 1.751-1.752zm16.163 6.025a3.07 3.07 0 0 1-1.508 2.133c-.758.438-1.689.577-2.669.716a17.29 17.29 0 0 0-1.64.291c-1.445.355-2.834 1.05-4.182 1.717-1.724.854-3.35 1.66-4.857 1.66a3.645 3.645 0 0 1-2.154-.688c-1.529-1.056-1.453-3.036-1.272-4.12.167-1.015.632-1.966 1.077-2.877.028-.055.049-.104.077-.16.152.056.312.098.479.126-.264 1.473.486 2.994 1.946 3.745l.264.139.284-.104c1.216-.431 2.342-1.133 3.336-2.071a9.334 9.334 0 0 0 1.445-1.716c.16.027.32.034.48.034a3.117 3.117 0 0 0 3.008-2.327h1.167a3.109 3.109 0 0 0 3.01 2.327c.576 0 1.11-.16 1.57-.43.18.52.236 1.063.139 1.605z"/>
  <path class="npm" fill="none" d="M0 7.334v8h6.666v1.332H12v-1.332h12v-8H0zm6.666 6.664H5.334v-4H3.999v4H1.335V8.667h5.331v5.331zm4 0v1.336H8.001V8.667h5.334v5.332h-2.669v-.001zm12.001 0h-1.33v-4h-1.336v4h-1.335v-4h-1.33v4h-2.671V8.667h8.002v5.331zM10.665 10H12v2.667h-1.335V10z"/>
  <path class="redis" fill="none" d="M23.99414 14.34005c-.01.229-.313.485-.935.81-1.281.667-7.916 3.396-9.328 4.132-1.413.736-2.197.729-3.313.195-1.116-.533-8.176-3.386-9.448-3.993-.635-.304-.959-.56-.97-.802v2.426c0 .242.334.499.97.803 1.272.608 8.333 3.46 9.448 3.993 1.116.534 1.9.541 3.313-.196 1.412-.736 8.047-3.464 9.328-4.132.651-.339.939-.603.939-.842 0-.226.001-2.392.001-2.392-.001-.001-.004-.001-.005-.002zM23.99314 10.38505c-.011.229-.313.484-.934.809-1.281.667-7.916 3.396-9.328 4.132-1.413.736-2.197.729-3.313.196-1.116-.533-8.176-3.386-9.448-3.994-.635-.303-.959-.56-.97-.801v2.426c0 .242.334.498.97.802 1.272.608 8.332 3.46 9.448 3.993 1.116.534 1.9.541 3.313-.195 1.412-.736 8.047-3.465 9.328-4.132.651-.34.939-.604.939-.843 0-.226.001-2.392.001-2.392-.001-.001-.004 0-.006-.001zM23.99314 6.28305c.012-.244-.307-.458-.949-.694-1.248-.457-7.843-3.082-9.106-3.545-1.263-.462-1.777-.443-3.261.089-1.484.533-8.506 3.287-9.755 3.776-.625.246-.931.473-.92.715v2.426c0 .242.334.498.97.802 1.272.608 8.332 3.461 9.448 3.994 1.116.533 1.9.54 3.313-.196 1.412-.736 8.047-3.465 9.328-4.132.651-.34.939-.604.939-.843 0-.225.001-2.392.001-2.392h-.008zm-15.399 2.296l5.561-.854-1.68 2.463-3.881-1.609zm12.299-2.218l-3.288 1.299-.357.14-3.287-1.299 3.642-1.44 3.29 1.3zm-9.655-2.383l-.538-.992 1.678.656 1.582-.518-.428 1.025 1.612.604-2.079.216-.466 1.12-.752-1.249-2.401-.216 1.792-.646zm-4.143 1.399c1.642 0 2.972.516 2.972 1.152 0 .636-1.331 1.152-2.972 1.152s-2.973-.517-2.973-1.152c0-.636 1.331-1.152 2.973-1.152z"/>
  <path class="git" fill="none" d="M23.546 10.93L13.067.452c-.604-.603-1.582-.603-2.188 0L8.708 2.627l2.76 2.76c.645-.215 1.379-.07 1.889.441.516.515.658 1.258.438 1.9l2.658 2.66c.645-.223 1.387-.078 1.9.435.721.72.721 1.884 0 2.604-.719.719-1.881.719-2.6 0-.539-.541-.674-1.337-.404-1.996L12.86 8.955v6.525c.176.086.342.203.488.348.713.721.713 1.883 0 2.6-.719.721-1.889.721-2.609 0-.719-.719-.719-1.879 0-2.598.182-.18.387-.316.605-.406V8.835c-.217-.091-.424-.222-.6-.401-.545-.545-.676-1.342-.396-2.009L7.636 3.7.45 10.881c-.6.605-.6 1.584 0 2.189l10.48 10.477c.604.604 1.582.604 2.186 0l10.43-10.43c.605-.603.605-1.582 0-2.187"/>
  <path class="sentry" fill="none" d="M23.663 21.572c.449-.748.449-1.496 0-2.244l-9.72-16.897c-.447-.747-1.195-1.048-1.943-1.048s-1.495.449-1.943 1.048L6.916 7.963l.748.449c2.393 1.346 4.336 3.289 5.682 5.682 1.197 2.094 1.944 4.336 2.094 6.73h-2.243c-.149-1.945-.748-3.889-1.794-5.684-1.047-2.093-2.692-3.738-4.785-4.935l-.749-.447-2.99 5.084.747.449c1.944 1.195 3.29 3.139 3.589 5.383H2.28c-.149 0-.3-.15-.3-.15s-.148-.15 0-.299l1.348-2.393c-.449-.447-1.048-.748-1.646-.896L.336 19.329c-.449.748-.449 1.496 0 2.244.448.746 1.046 1.045 1.943 1.045h6.879v-.896c0-1.645-.449-3.141-1.196-4.637-.599-1.195-1.496-2.093-2.542-2.84L6.467 12.3c1.347 1.046 2.543 2.243 3.439 3.739 1.047 1.793 1.496 3.738 1.496 5.682v.896h5.831v-.896c0-2.99-.747-5.982-2.392-8.673-1.197-2.394-3.141-4.337-5.385-5.833L11.7 3.328c.151-.15.3-.15.3-.15.15 0 .15 0 .299.15l9.721 16.896c.148.148 0 .299 0 .299s-.15.15-.3.15h-2.243v1.795h2.243c.896.149 1.495-.15 1.943-.896z"/>
  <path class="prometheus" fill="none" d="M12 0C5.373 0 0 5.372 0 12c0 6.627 5.373 12 12 12s12-5.373 12-12c0-6.628-5.373-12-12-12zm0 22.46c-1.885 0-3.414-1.26-3.414-2.814h6.828c0 1.553-1.528 2.813-3.414 2.813zm5.64-3.745H6.36v-2.046h11.28v2.046zm-.04-3.098H6.391c-.037-.043-.075-.086-.111-.13-1.155-1.401-1.427-2.133-1.69-2.879-.005-.025 1.4.287 2.395.511 0 0 .513.119 1.262.255-.72-.843-1.147-1.915-1.147-3.01 0-2.406 1.845-4.508 1.18-6.207.648.053 1.34 1.367 1.387 3.422.689-.951.977-2.69.977-3.755 0-1.103.727-2.385 1.454-2.429-.648 1.069.168 1.984.894 4.256.272.854.237 2.29.447 3.201.07-1.892.395-4.652 1.595-5.605-.529 1.2.079 2.702.494 3.424.671 1.164 1.078 2.047 1.078 3.716a4.642 4.642 0 01-1.11 2.996c.792-.149 1.34-.283 1.34-.283l2.573-.502s-.374 1.538-1.81 3.019z"/>
  <path class="svelte" fill="none" d="M20.68 3.17a7.3 7.3 0 0 0-9.8-2.1l-5.6 3.56a6.36 6.36 0 0 0-2.89 4.3 6.66 6.66 0 0 0 .67 4.33 6.14 6.14 0 0 0-.95 2.4 6.84 6.84 0 0 0 1.16 5.16 7.33 7.33 0 0 0 9.8 2.12l5.6-3.56a6.36 6.36 0 0 0 2.88-4.3 6.66 6.66 0 0 0-.67-4.32 6.79 6.79 0 0 0-.2-7.59zM10.32 21.13a4.43 4.43 0 0 1-4.76-1.77c-.65-.9-.89-2.01-.7-3.11l.11-.53.1-.33.3.2c.66.5 1.4.86 2.19 1.1l.2.07-.02.2c-.02.28.06.59.22.83.33.47.9.7 1.45.55.12-.04.24-.08.34-.14l5.58-3.56c.28-.18.46-.45.53-.77.06-.33-.02-.67-.2-.94-.33-.46-.9-.67-1.45-.53-.12.04-.25.09-.35.15l-2.11 1.34a4.43 4.43 0 0 1-5.9-1.28 4.1 4.1 0 0 1-.7-3.11A3.85 3.85 0 0 1 6.92 6.9l5.57-3.56c.35-.22.73-.38 1.14-.5 1.8-.47 3.7.24 4.76 1.76a4.12 4.12 0 0 1 .57 3.64l-.1.33-.29-.2a7.42 7.42 0 0 0-2.2-1.1l-.2-.06.02-.2c.02-.29-.06-.6-.22-.84-.33-.47-.9-.67-1.45-.53-.12.04-.24.08-.34.14L8.59 9.37c-.28.19-.46.45-.52.78-.06.32.02.67.2.93.32.47.9.67 1.44.53.13-.04.25-.08.35-.14l2.13-1.36c.35-.23.74-.4 1.14-.51 1.81-.47 3.7.24 4.76 1.77.65.9.9 2.01.72 3.1a3.85 3.85 0 0 1-1.75 2.6l-5.58 3.55a4.9 4.9 0 0 1-1.16.51z"/>
  <path class="html5" fill="none" d="M1.5 0h21l-1.91 21.563L11.977 24l-8.564-2.438L1.5 0zm7.031 9.75l-.232-2.718 10.059.003.23-2.622L5.412 4.41l.698 8.01h9.126l-.326 3.426-2.91.804-2.955-.81-.188-2.11H6.248l.33 4.171L12 19.351l5.379-1.443.744-8.157H8.531z"/>
  <path class="auth0" fill="none" d="M21.98 7.448L19.62 0H4.347L2.02 7.448c-1.352 4.312.03 9.206 3.815 12.015L12.007 24l6.157-4.552c3.755-2.81 5.182-7.688 3.815-12.015l-6.16 4.58 2.343 7.45-6.157-4.597-6.158 4.58 2.358-7.433-6.188-4.55 7.63-.045L12.008 0l2.356 7.404 7.615.044z"/>
  <path class="tensorflow" fill="none" d="M19.6 12l.1 4.7-3.1-1.8v6.7L12.5 24V0l10.2 5.9v5.3l-6.1-3.6v2.7zM1.3 5.9L11.5 0v24l-4.1-2.4v-14l-6.1 3.6z"/>
  <path class="grafana" fill="none" d="M22.999 10.626c-.043-.405-.106-.873-.234-1.384s-.341-1.065-.618-1.661c-.298-.575-.66-1.193-1.15-1.768-.192-.234-.405-.447-.618-.681.341-1.342-.405-2.513-.405-2.513-1.299-.085-2.108.405-2.406.618-.043-.021-.106-.043-.149-.064-.213-.085-.447-.17-.681-.256-.234-.064-.469-.149-.703-.192-.234-.064-.49-.106-.745-.149-.043 0-.085-.021-.128-.021C14.608.766 12.99 0 12.99 0c-1.853 1.193-2.215 2.79-2.215 2.79s0 .043-.021.085c-.106.021-.192.064-.298.085-.128.043-.277.085-.405.149s-.277.106-.405.17c-.277.128-.532.256-.809.405a8.52 8.52 0 0 0-.745.469c-.043-.021-.064-.043-.064-.043-2.492-.958-4.706.192-4.706.192-.192 2.662 1.001 4.323 1.235 4.621-.064.17-.106.319-.17.49a10.658 10.658 0 0 0-.405 1.853c-.021.085-.021.192-.043.277-2.3 1.129-2.981 3.471-2.981 3.471 1.917 2.215 4.174 2.343 4.174 2.343a9.61 9.61 0 0 0 .98 1.448c.149.192.319.362.49.554-.703 2.002.106 3.684.106 3.684 2.151.085 3.556-.937 3.854-1.171l.639.192c.66.17 1.342.277 2.002.298h.873c1.001 1.448 2.79 1.64 2.79 1.64 1.256-1.342 1.342-2.641 1.342-2.939v-.021-.043-.064c.256-.192.511-.383.767-.596.511-.447.937-.98 1.32-1.533.043-.043.064-.106.106-.149 1.427.085 2.428-.894 2.428-.894-.234-1.491-1.086-2.215-1.256-2.343l-.021-.021-.021-.021-.021-.021c0-.085.021-.17.021-.277.021-.17.021-.319.021-.49v-.213-.277-.128c0-.043 0-.085-.021-.128l-.043-.256c-.021-.17-.064-.319-.085-.49a6.327 6.327 0 0 0-.724-1.789 6.634 6.634 0 0 0-1.214-1.448 5.89 5.89 0 0 0-1.533-.98 5.368 5.368 0 0 0-1.682-.469c-.277-.043-.575-.043-.852-.043h-.128-.298c-.149.021-.298.043-.426.064-.575.106-1.107.319-1.576.596s-.873.639-1.214 1.043a4.284 4.284 0 0 0-.767 1.299c-.17.447-.277.937-.298 1.384v.511c0 .064 0 .106.021.17a3.642 3.642 0 0 0 .703 1.81c.256.341.532.596.852.809.319.213.639.362.98.469s.66.149.958.128h.446c.043 0 .085-.021.106-.021.043 0 .064-.021.106-.021.064-.021.149-.043.213-.064.128-.043.256-.106.383-.149.128-.064.234-.128.319-.192.021-.021.064-.043.085-.064a.24.24 0 0 0 .043-.341.298.298 0 0 0-.319-.064c-.021.021-.043.021-.085.043a1.43 1.43 0 0 1-.277.106c-.106.021-.213.064-.319.085-.064 0-.106.021-.17.021h-.361s-.021 0 0 0h-.086c-.022 0-.064 0-.085-.021-.234-.043-.49-.106-.724-.213s-.469-.256-.66-.447c-.213-.192-.383-.405-.532-.66s-.234-.532-.277-.809c-.021-.149-.043-.298-.021-.447v-.128c0 .021 0 0 0 0v-.043-.064c0-.085.021-.149.043-.234a3.114 3.114 0 0 1 .916-1.725c.128-.128.256-.234.405-.319.149-.106.298-.192.447-.256s.319-.128.49-.17c.17-.043.341-.085.511-.085.085 0 .17-.021.256-.021H15.228c.021 0 0 0 0 0h.085a4.046 4.046 0 0 1 1.619.49c.681.383 1.256.958 1.597 1.661.17.341.298.724.362 1.129.021.106.021.192.043.298v.554c0 .106-.021.213-.021.319-.021.106-.021.213-.043.319l-.064.319c-.021.106-.128.405-.192.618s-.362.788-.618 1.129a5.164 5.164 0 0 1-2.002 1.64c-.405.17-.809.319-1.235.383a3.221 3.221 0 0 1-.639.064h-.319c.021 0 0 0 0 0h-.021c-.106 0-.234 0-.341-.021-.469-.043-.916-.128-1.363-.256s-.873-.298-1.278-.511a6.956 6.956 0 0 1-2.108-1.746c-.277-.362-.532-.745-.745-1.15s-.362-.831-.49-1.256a5.489 5.489 0 0 1-.213-1.32v-.49-.17c0-.213.021-.447.064-.681.021-.234.064-.447.106-.681s.106-.447.17-.681.277-.873.469-1.278c.383-.809.873-1.533 1.448-2.108.149-.149.298-.277.469-.405.064-.064.213-.192.383-.298s.341-.213.532-.298c.085-.043.17-.085.277-.128.043-.021.085-.043.149-.064.043-.021.085-.043.149-.064.192-.085.383-.149.575-.213.043-.021.106-.021.149-.043s.106-.021.149-.043.192-.043.298-.085c.043-.021.106-.021.149-.043.043 0 .106-.021.149-.021s.106-.021.149-.021l.17-.043c.043 0 .106-.021.149-.021.064 0 .106-.021.17-.021.043 0 .128-.021.17-.021s.064 0 .106-.021h.149c.064 0 .106 0 .17-.021h.085s.021 0 0 0H15.033c.383.021.767.064 1.129.128a7.234 7.234 0 0 1 2.044.681 7.676 7.676 0 0 1 1.661 1.086c.021.021.064.043.085.085.021.021.064.043.085.085.064.043.106.106.17.149s.106.106.17.149c.043.064.106.106.149.17a7.88 7.88 0 0 1 1.406 1.98c.021.021.021.043.043.085.021.021.021.043.043.085s.043.106.085.149c.021.043.043.106.064.149s.043.106.064.149c.085.192.149.383.213.575.106.298.17.554.234.767a.204.204 0 0 0 .192.149c.106 0 .17-.085.17-.192-.021-.256-.021-.532-.043-.852z"/>
  <path class="d3" fill="none" d="M13.312 12C13.312 5.718 8.22.625 1.937.625H0v5h1.938c3.521 0 6.375 2.854 6.375 6.375s-2.854 6.375-6.375 6.375H0v5h1.938c6.281 0 11.374-5.093 11.374-11.375zM24 7.563C24 3.731 20.893.625 17.062.625h-8a13.4154 13.4154 0 0 1 4.686 5h3.314c1.069 0 1.938.868 1.938 1.938 0 1.07-.869 1.938-1.938 1.938h-1.938c.313 1.652.313 3.348 0 5h1.938c1.068 0 1.938.867 1.938 1.938s-.869 1.938-1.938 1.938h-3.314a13.4154 13.4154 0 0 1-4.686 5h8c1.621 0 3.191-.568 4.438-1.605 2.943-2.45 3.346-6.824.895-9.77A6.9459 6.9459 0 0 0 24 7.563z"/>
  <path class="prettier" fill="none" d="M8.571 23.429A.571.571 0 0 1 8 24H2.286a.571.571 0 0 1 0-1.143H8c.316 0 .571.256.571.572zM8 20.57H6.857a.571.571 0 0 0 0 1.143H8a.571.571 0 0 0 0-1.143zm-5.714 1.143H4.57a.571.571 0 0 0 0-1.143H2.286a.571.571 0 0 0 0 1.143zM8 18.286H2.286a.571.571 0 0 0 0 1.143H8a.571.571 0 0 0 0-1.143zM16 16H5.714a.571.571 0 0 0 0 1.143H16A.571.571 0 0 0 16 16zM2.286 17.143h1.143a.571.571 0 0 0 0-1.143H2.286a.571.571 0 0 0 0 1.143zm17.143-3.429H16a.571.571 0 0 0 0 1.143h3.429a.571.571 0 0 0 0-1.143zM9.143 14.857h4.571a.571.571 0 0 0 0-1.143H9.143a.571.571 0 0 0 0 1.143zm-6.857 0h4.571a.571.571 0 0 0 0-1.143H2.286a.571.571 0 0 0 0 1.143zM20.57 11.43H11.43a.571.571 0 0 0 0 1.142h9.142a.571.571 0 0 0 0-1.142zM9.714 12a.571.571 0 0 0-.571-.571H5.714a.571.571 0 0 0 0 1.142h3.429A.571.571 0 0 0 9.714 12zm-7.428.571h1.143a.571.571 0 0 0 0-1.142H2.286a.571.571 0 0 0 0 1.142zm19.428-3.428H16a.571.571 0 0 0 0 1.143h5.714a.571.571 0 0 0 0-1.143zM2.286 10.286H8a.571.571 0 0 0 0-1.143H2.286a.571.571 0 0 0 0 1.143zm13.143-2.857c0 .315.255.571.571.571h5.714a.571.571 0 0 0 0-1.143H16a.571.571 0 0 0-.571.572zm-8.572-.572a.571.571 0 0 0 0 1.143H8a.571.571 0 0 0 0-1.143H6.857zM2.286 8H4.57a.571.571 0 0 0 0-1.143H2.286a.571.571 0 0 0 0 1.143zm16.571-2.857c0 .315.256.571.572.571h1.142a.571.571 0 0 0 0-1.143H19.43a.571.571 0 0 0-.572.572zm-1.143 0a.571.571 0 0 0-.571-.572H12.57a.571.571 0 0 0 0 1.143h4.572a.571.571 0 0 0 .571-.571zm-15.428.571h8a.571.571 0 0 0 0-1.143h-8a.571.571 0 0 0 0 1.143zm5.143-2.857c0 .316.255.572.571.572h11.429a.571.571 0 0 0 0-1.143H8a.571.571 0 0 0-.571.571zm-5.143.572h3.428a.571.571 0 0 0 0-1.143H2.286a.571.571 0 0 0 0 1.143zm0-2.286H16A.571.571 0 0 0 16 0H2.286a.571.571 0 0 0 0 1.143z"/>
  <path class="mongodb" fill="none" d="M17.18 9.518c-1.263-5.56-4.242-7.387-4.562-8.086C12.266.939 11.885 0 11.885 0c-.002.019-.004.031-.005.049v.013h-.001c-.002.015-.003.025-.004.039v.015h-.002c0 .01-.002.018-.002.026v.026h-.003c-.001.008-.001.018-.003.025v.021h-.002c0 .007 0 .015-.002.021v.02h-.002c0 .01-.001.022-.002.032v.002c-.003.017-.006.034-.009.05v.008h-.002c-.001.004-.003.008-.003.012v.017h-.003v.022h-.005v.018h-.005v.021h-.004v.019h-.004v.017h-.006v.014h-.004v.018h-.004v.014h-.005v.013H11.8v.015h-.004c-.001.001-.001.003-.001.004v.01h-.003c-.001.002-.001.004-.001.006v.006h-.002c-.001.003-.002.008-.002.01-.003.007-.007.014-.01.021v.002c-.002.002-.004.005-.005.007v.008h-.004v.008h-.005v.008h-.003v.01h-.006v.014h-.004v.004h-.004v.008h-.004v.011h-.004v.008h-.006v.011h-.004v.008h-.005v.008h-.003v.01h-.005v.008h-.004v.006h-.004v.008h-.006V.76h-.004v.006h-.005v.008h-.004v.011h-.005v.004h-.003v.008h-.006v.004h-.004v.01h-.004v.004h-.004v.008h-.005v.006h-.003l-.002.004v.004h-.002c-.001.002-.002.002-.002.004v.001h-.001c-.001.003-.002.005-.004.007v.003h-.001c-.005.006-.008.012-.012.018v.001c-.002.002-.007.006-.009.01v.002h-.001c-.001.001-.003.002-.003.003v.003h-.002l-.003.003v.001h-.001c0 .001-.002.002-.003.004v.004h-.003l-.002.002v.002h-.002c0 .002-.002.002-.002.003v.003h-.004c0 .001-.001.002-.002.003V.92h-.003v.004h-.004V.93h-.004v.008h-.005V.93h-.005v.004h-.004V.94h-.005v.008h-.005v.004h-.004v.006h-.004v.004h-.004V.97h-.006v.004h-.004V.98h-.005v.004h-.004v.005h-.005v.01h-.002v.004h-.006v.005h-.004v.002h-.004v.004h-.005v.01h-.004v.004h-.005v.004h-.004v.006h-.005v.004h-.005v.004h-.004v.004h-.004v.01h-.004v.005h-.006v.004h-.004v.004h-.005v.006h-.004v.004h-.005v.007h-.004v.004h-.006V1.1h-.002v.004h-.004v.004h-.005v.004h-.004v.006h-.005v.004h-.003c-.001.001-.001.002-.001.002v.002h-.002l-.004.004s-.002.002-.004.003v.006h-.004v.005h-.004v.004h-.004v.004h-.003l-.003.003v.003h-.002l-.002.002v.003h-.002c-.005.006-.007.01-.014.016-.002.002-.008.007-.012.01-.012.008-.027.021-.039.032-.008.005-.016.012-.022.017v.001h-.001c-.016.013-.031.025-.049.039v.001c-.024.02-.047.039-.074.062V1.34h-.002c-.057.047-.117.1-.186.159V1.5h-.001c-.169.148-.37.338-.595.568l-.015.015-.004.004C9 3.494 6.857 6.426 6.631 11.164c-.02.392-.016.773.006 1.144v.009c.109 1.867.695 3.461 1.428 4.756v.001c.292.516.607.985.926 1.405v.001c1.102 1.455 2.227 2.317 2.514 2.526.441 1.023.4 2.779.4 2.779l.644.215s-.131-1.701.053-2.522c.057-.257.192-.476.349-.662.106-.075.42-.301.797-.645.018-.019.028-.036.044-.054 1.521-1.418 4.362-4.91 3.388-10.599z"/>
  <path class="nginx" fill="none" d="M12 0L1.605 6v12L12 24l10.395-6V6L12 0zm6 16.59c0 .705-.646 1.29-1.529 1.29-.631 0-1.351-.255-1.801-.81l-6-7.141v6.66c0 .721-.57 1.29-1.274 1.29H7.32c-.721 0-1.29-.6-1.29-1.29V7.41c0-.705.63-1.29 1.5-1.29.646 0 1.38.255 1.83.81l5.97 7.141V7.41c0-.721.6-1.29 1.29-1.29h.075c.72 0 1.29.6 1.29 1.29v9.18H18z"/>
  <path class="nodejs" fill="none" d="M11.435.153l-9.37 5.43c-.35.203-.564.578-.563.983V17.43c0 .404.215.78.564.982l9.37 5.435c.35.203.78.203 1.13 0l9.366-5.433c.35-.205.564-.578.565-.982V6.566c0-.404-.216-.78-.566-.984L12.567.152c-.35-.203-.782-.203-1.13 0"/>
  <path class="vuejs" fill="none" d="M24,1.61H14.06L12,5.16,9.94,1.61H0L12,22.39ZM12,14.08,5.16,2.23H9.59L12,6.41l2.41-4.18h4.43Z"/>
  <path class="netlify" fill="none" d="M16.934 8.519a1.044 1.044 0 0 1 .303.23l2.349-1.045-2.192-2.171-.491 2.954zM12.06 6.546a1.305 1.305 0 0 1 .209.574l3.497 1.482a1.044 1.044 0 0 1 .355-.177l.574-3.55-2.13-2.234-2.505 3.852v.053zm11.933 5.491l-3.748-3.748-2.548 1.044 6.264 2.662s.053.042.032.042zm-.627.606l-6.013-2.569a1.044 1.044 0 0 1-.7.407l-.647 3.957a1.044 1.044 0 0 1 .303.731l3.633.762 3.33-3.31v-.062zM15.4 9.25L12.132 7.86a1.2 1.2 0 0 1-1.044.543h-.199L8.185 12.58l7.225-3.132v.01a.887.887 0 0 1 0-.167.052.052 0 0 0-.01-.041zm3.967 7.308l-3.195-.658a1.096 1.096 0 0 1-.46.344l-.761 4.72 4.437-4.396s-.01.02-.021.02zm-4.469-.324a1.044 1.044 0 0 1-.616-.71l-5.95-1.222-.084.136 5.398 7.81.323-.324.919-5.67s.031.022.01.011zm-6.441-2.652l5.878 1.211a1.044 1.044 0 0 1 .824-.522l.637-3.894-.135-.115-7.308 3.132a1.817 1.817 0 0 1 .104.188zm-2.464.981l-.125-.125-2.537 1.044 1.232 1.222 1.399-2.172zm1.67.397a1.368 1.368 0 0 1-.563.125 1.389 1.389 0 0 1-.45-.073l-1.544 2.245 6.765 6.702 1.19-1.18zm-.95-2.641a1.702 1.702 0 0 1 .314 0 1.378 1.378 0 0 1 .344 0l2.735-4.25a1.19 1.19 0 0 1-.334-.824 1.242 1.242 0 0 1 0-.271l-3.32-1.535-2.672 2.6zm.303-7.402l3.237 1.378a1.242 1.242 0 0 1 .835-.282 1.357 1.357 0 0 1 .397.063l2.526-3.947L11.923.041 7.016 4.854s-.01.052 0 .063zm-1.21 8.164a1.566 1.566 0 0 1 .24-.334L3.278 8.613 0 11.797l5.804 1.284zm-.262.7L.533 12.735l2.203 2.235 2.777-1.18z"/>
  <path class="electron" fill="none" d="M2.648 11.678c-1.038-1.81-1.249-3.504-.511-4.781.988-1.712 3.468-2.31 6.604-1.739a.322.322 0 1 1-.115.633c-2.9-.528-5.111.005-5.932 1.428-.605 1.047-.423 2.509.512 4.14a.322.322 0 1 1-.558.32zm14.92-6.069c1.835.024 3.156.596 3.751 1.626.82 1.419.18 3.595-1.718 5.837a.322.322 0 1 0 .49.416c2.054-2.426 2.771-4.866 1.785-6.575-.726-1.257-2.26-1.92-4.299-1.947a.322.322 0 1 0-.008.643zm-1.854 15.239a.322.322 0 0 0-.442.11c-.934 1.553-2.08 2.399-3.26 2.399-1.642 0-3.208-1.647-4.2-4.418a.322.322 0 1 0-.606.217C8.279 22.154 10.036 24 12.01 24c1.44 0 2.773-.982 3.813-2.71a.322.322 0 0 0-.11-.442zm7.356-2.594a1.54 1.54 0 0 1-2.436 1.25c-2.455 1.445-7.146.71-11.56-1.84-1.88-1.085-3.527-2.392-4.795-3.785a.322.322 0 1 1 .476-.433c1.222 1.343 2.817 2.609 4.64 3.661 4.167 2.406 8.553 3.12 10.797 1.906a1.54 1.54 0 1 1 2.878-.759zm-19.062 0a1.54 1.54 0 1 1-2.285-1.345c-.233-2.877 2.79-6.734 7.36-9.372 1.898-1.096 3.874-1.874 5.731-2.271a.322.322 0 0 1 .135.628c-1.79.384-3.703 1.137-5.545 2.2-4.304 2.485-7.148 6.067-7.048 8.627.038-.003.075-.006.113-.006.85 0 1.54.69 1.54 1.54zM10.472 1.54a1.54 1.54 0 0 1 3.078 0c0 .023-.002.045-.003.067 2.549 1.317 4.32 5.81 4.32 11.003 0 2.135-.298 4.184-.854 5.96a.322.322 0 1 1-.614-.192c.536-1.712.825-3.697.825-5.768 0-4.89-1.626-9.095-3.847-10.363a1.538 1.538 0 0 1-2.905-.707zm1.304 9.981a1.114 1.114 0 1 0 .47 2.178 1.114 1.114 0 0 0-.47-2.178z"/>
  <path class="react" fill="none" d="M12 9.861A2.139 2.139 0 1 0 12 14.139 2.139 2.139 0 1 0 12 9.861zM6.008 16.255l-.472-.12C2.018 15.246 0 13.737 0 11.996s2.018-3.25 5.536-4.139l.472-.119.133.468a23.53 23.53 0 0 0 1.363 3.578l.101.213-.101.213a23.307 23.307 0 0 0-1.363 3.578l-.133.467zM5.317 8.95c-2.674.751-4.315 1.9-4.315 3.046 0 1.145 1.641 2.294 4.315 3.046a24.95 24.95 0 0 1 1.182-3.046A24.752 24.752 0 0 1 5.317 8.95zM17.992 16.255l-.133-.469a23.357 23.357 0 0 0-1.364-3.577l-.101-.213.101-.213a23.42 23.42 0 0 0 1.364-3.578l.133-.468.473.119c3.517.889 5.535 2.398 5.535 4.14s-2.018 3.25-5.535 4.139l-.473.12zm-.491-4.259c.48 1.039.877 2.06 1.182 3.046 2.675-.752 4.315-1.901 4.315-3.046 0-1.146-1.641-2.294-4.315-3.046a24.788 24.788 0 0 1-1.182 3.046zM5.31 8.945l-.133-.467C4.188 4.992 4.488 2.494 6 1.622c1.483-.856 3.864.155 6.359 2.716l.34.349-.34.349a23.552 23.552 0 0 0-2.422 2.967l-.135.193-.235.02a23.657 23.657 0 0 0-3.785.61l-.472.119zm1.896-6.63c-.268 0-.505.058-.705.173-.994.573-1.17 2.565-.485 5.253a25.122 25.122 0 0 1 3.233-.501 24.847 24.847 0 0 1 2.052-2.544c-1.56-1.519-3.037-2.381-4.095-2.381zM16.795 22.677c-.001 0-.001 0 0 0-1.425 0-3.255-1.073-5.154-3.023l-.34-.349.34-.349a23.53 23.53 0 0 0 2.421-2.968l.135-.193.234-.02a23.63 23.63 0 0 0 3.787-.609l.472-.119.134.468c.987 3.484.688 5.983-.824 6.854a2.38 2.38 0 0 1-1.205.308zm-4.096-3.381c1.56 1.519 3.037 2.381 4.095 2.381h.001c.267 0 .505-.058.704-.173.994-.573 1.171-2.566.485-5.254a25.02 25.02 0 0 1-3.234.501 24.674 24.674 0 0 1-2.051 2.545zM18.69 8.945l-.472-.119a23.479 23.479 0 0 0-3.787-.61l-.234-.02-.135-.193a23.414 23.414 0 0 0-2.421-2.967l-.34-.349.34-.349C14.135 1.778 16.515.767 18 1.622c1.512.872 1.812 3.37.824 6.855l-.134.468zM14.75 7.24c1.142.104 2.227.273 3.234.501.686-2.688.509-4.68-.485-5.253-.988-.571-2.845.304-4.8 2.208A24.849 24.849 0 0 1 14.75 7.24zM7.206 22.677A2.38 2.38 0 0 1 6 22.369c-1.512-.871-1.812-3.369-.823-6.854l.132-.468.472.119c1.155.291 2.429.496 3.785.609l.235.02.134.193a23.596 23.596 0 0 0 2.422 2.968l.34.349-.34.349c-1.898 1.95-3.728 3.023-5.151 3.023zm-1.19-6.427c-.686 2.688-.509 4.681.485 5.254.987.563 2.843-.305 4.8-2.208a24.998 24.998 0 0 1-2.052-2.545 24.976 24.976 0 0 1-3.233-.501zM12 16.878c-.823 0-1.669-.036-2.516-.106l-.235-.02-.135-.193a30.388 30.388 0 0 1-1.35-2.122 30.354 30.354 0 0 1-1.166-2.228l-.1-.213.1-.213a30.3 30.3 0 0 1 1.166-2.228c.414-.716.869-1.43 1.35-2.122l.135-.193.235-.02a29.785 29.785 0 0 1 5.033 0l.234.02.134.193a30.006 30.006 0 0 1 2.517 4.35l.101.213-.101.213a29.6 29.6 0 0 1-2.517 4.35l-.134.193-.234.02c-.847.07-1.694.106-2.517.106zm-2.197-1.084c1.48.111 2.914.111 4.395 0a29.006 29.006 0 0 0 2.196-3.798 28.585 28.585 0 0 0-2.197-3.798 29.031 29.031 0 0 0-4.394 0 28.477 28.477 0 0 0-2.197 3.798 29.114 29.114 0 0 0 2.197 3.798z"/>
  <path class="elastic" fill="none" d="M20.32 16.3152l-3.9463-.923-1.048-2.0031 5.1615-4.522c1.5305.5798 2.551 2.0476 2.551 3.6903 0 1.6906-1.1146 3.2278-2.7182 3.7578m-2.9667 4.666c-.6147 0-1.217-.2062-1.709-.5845l.7801-4.0648 3.5847.8388c.1139.3094.1714.6396.1714.9835 0 1.559-1.268 2.827-2.8272 2.827m-2.6292-.5844a5.902 5.902 0 0 1-4.8925 2.593c-3.2651 0-5.9215-2.6564-5.9215-5.921 0-.4008.039-.7966.1156-1.1785l5.1509-4.6553 5.2557 2.3956 1.1637 2.2235zM.9636 11.443c0-1.69 1.1145-3.2266 2.7175-3.7577l3.9374.93.9242 1.9747-5.0336 4.5498C1.9815 14.558.9636 13.0885.9636 11.4429m5.6847-8.424a2.8325 2.8325 0 0 1 1.718.5798l-.7861 4.079-3.5876-.847c-.114-.3095-.1714-.6397-.1714-.984 0-1.5592 1.268-2.8278 2.8271-2.8278m2.653.5875c1.1044-1.6082 2.9212-2.5674 4.8692-2.5674 3.2562 0 5.9049 2.6492 5.9049 5.9055 0 .3983-.0373.7789-.1139 1.1607l-5.2819 4.628-5.235-2.3865-1.022-2.1822zm14.662 8.9622c0-2.0052-1.2432-3.7582-3.114-4.4403a6.6742 6.6742 0 0 0 .125-1.2855c0-3.7274-3.0325-6.76-6.7605-6.76-2.1775 0-4.2033 1.0443-5.4761 2.804a3.575 3.575 0 0 0-2.1963-.7516c-1.9786 0-3.5883 1.6097-3.5883 3.5882 0 .4373.078.8557.2244 1.2505-1.86.6712-3.139 2.4653-3.139 4.4579 0 2.0155 1.2493 3.7763 3.1287 4.4536a6.8545 6.8545 0 0 0-.1233 1.285c0 3.7189 3.0252 6.7441 6.7441 6.7441 2.183 0 4.2075-1.0485 5.4732-2.8155.63.4947 1.4004.7662 2.1994.7662 1.9784 0 3.5881-1.609 3.5881-3.5876 0-.4373-.078-.8562-.2243-1.2512 1.86-.6706 3.139-2.4652 3.139-4.4578"/>
  <path class="neo4j" fill="none" d="M22.717 8.417c-.014 2.959-2.412 5.321-5.391 5.309-2.946-.014-5.306-2.424-5.291-5.407.014-2.9 2.458-5.287 5.391-5.265 2.926.022 5.304 2.434 5.291 5.363zM9.813 24c-2.357.008-4.337-1.965-4.361-4.344-.024-2.33 1.955-4.33 4.295-4.34 2.438-.01 4.395 1.916 4.395 4.326.003 2.383-1.952 4.35-4.329 4.358zM8.923 2.84c0 1.562-1.286 2.847-2.841 2.839C4.533 5.672 3.221 4.35 3.246 2.82 3.271 1.268 4.588-.022 6.126 0c1.531.023 2.797 1.308 2.797 2.84zM21.9 11.948c-2.697 2.356-5 2.779-7.42 1.36-2.14-1.254-3.196-3.721-2.654-6.197.587-2.68 2.506-4.085 6.197-4.467C15.222.642 12.26.025 9.008.821c-.421.102-.241.261-.126.473.786 1.447.383 3.207-.942 4.151-1.325.943-3.126.755-4.218-.49-.322-.367-.427-.269-.654.063C.56 8.691.705 13.697 3.44 17.203c.492.631 1.027 1.219 1.691 1.71.75-3.208 3.394-4.251 5.519-3.888 2.593.442 4.002 2.602 3.758 5.787 3.516-.43 7.927-5.65 7.492-8.864zm-9.088-9.853c.462-.023.87.365.881.835.009.456-.347.827-.807.843-.506.017-.862-.32-.866-.818-.005-.476.328-.837.792-.86zM5.076 6.629c.48.009.853.401.832.876-.019.452-.398.804-.859.798-.46-.006-.821-.366-.828-.827-.007-.483.369-.855.855-.847zm-.721 3.099c.003-.451.374-.824.829-.835.461-.011.825.335.844.803.02.489-.337.878-.813.887-.473.007-.863-.381-.86-.855zm.515 2.371c.023-.46.396-.806.858-.797.479.01.822.391.802.891-.019.468-.384.813-.846.797-.478-.014-.838-.409-.814-.891zm1.992 3.034c-.5.007-.857-.345-.851-.838.006-.46.371-.832.818-.836.47-.004.873.391.869.853-.002.452-.371.813-.836.821zm3.831-12.11c-.469.012-.868-.38-.866-.849.002-.481.384-.84.876-.826.462.013.814.376.813.837-.001.449-.372.827-.823.838zm5.008 15.122c-.494-.004-.856-.375-.838-.858.018-.446.402-.81.855-.808.479.004.85.393.833.875-.015.462-.37.792-.85.791zm1.534-1.77c-.482.011-.872-.367-.866-.84.005-.462.363-.822.825-.833.485-.011.864.356.863.841.001.455-.362.821-.822.832z"/>
  <path class="yarn" fill="none" d="M12 0C5.375 0 0 5.375 0 12s5.375 12 12 12 12-5.375 12-12S18.625 0 12 0zm.768 4.105c.183 0 .363.053.525.157.125.083.287.185.755 1.154.31-.088.468-.042.551-.019.204.056.366.19.463.375.477.917.542 2.553.334 3.605-.241 1.232-.755 2.029-1.131 2.576.324.329.778.899 1.117 1.825.278.774.31 1.478.273 2.015a5.51 5.51 0 0 0 .602-.329c.593-.366 1.487-.917 2.553-.931.714-.009 1.269.445 1.353 1.103a1.23 1.23 0 0 1-.945 1.362c-.649.158-.95.278-1.821.843-1.232.797-2.539 1.242-3.012 1.39a1.686 1.686 0 0 1-.704.343c-.737.181-3.266.315-3.466.315h-.046c-.783 0-1.214-.241-1.45-.491-.658.329-1.51.19-2.122-.134a1.078 1.078 0 0 1-.58-1.153 1.243 1.243 0 0 1-.153-.195c-.162-.25-.528-.936-.454-1.946.056-.723.556-1.367.88-1.71a5.522 5.522 0 0 1 .408-2.256c.306-.727.885-1.348 1.32-1.737-.32-.537-.644-1.367-.329-2.21.227-.602.412-.936.82-1.08h-.005c.199-.074.389-.153.486-.259a3.418 3.418 0 0 1 2.298-1.103c.037-.093.079-.185.125-.283.31-.658.639-1.029 1.024-1.168a.94.94 0 0 1 .328-.06zm.006.7c-.507.016-1.001 1.519-1.001 1.519s-1.27-.204-2.266.871c-.199.218-.468.334-.746.44-.079.028-.176.023-.417.672-.371.991.625 2.094.625 2.094s-1.186.839-1.626 1.881c-.486 1.144-.338 2.261-.338 2.261s-.843.732-.899 1.487c-.051.663.139 1.2.343 1.515.227.343.51.176.51.176s-.561.653-.037.931c.477.25 1.283.394 1.71-.037.31-.31.371-1.001.486-1.283.028-.065.12.111.209.199.097.093.264.195.264.195s-.755.324-.445 1.066c.102.246.468.403 1.066.398.222-.005 2.664-.139 3.313-.296.375-.088.505-.283.505-.283s1.566-.431 2.998-1.357c.917-.598 1.293-.76 2.034-.936.612-.148.57-1.098-.241-1.084-.839.009-1.575.44-2.196.825-1.163.718-1.742.672-1.742.672l-.018-.032c-.079-.13.371-1.293-.134-2.678-.547-1.515-1.413-1.881-1.344-1.997.297-.5 1.038-1.297 1.334-2.78.176-.899.13-2.377-.269-3.151-.074-.144-.732.241-.732.241s-.616-1.371-.788-1.483a.271.271 0 0 0-.157-.046z"/>
  <path class="influxdb" fill="none" d="M23.775 14.443L21.482 4.5c-.128-.536-.621-1.093-1.178-1.243L9.868.043C9.739 0 9.589 0 9.418 0c-.45 0-.9.171-1.222.45L.718 7.414C.31 7.78.096 8.507.225 9.021l2.443 10.65c.128.536.621 1.093 1.178 1.243l9.772 3.043c.128.043.278.043.45.043.45 0 .9-.171 1.221-.45l7.993-7.436c.407-.428.622-1.114.493-1.671zM10.961 2.4l7.178 2.207c.279.086.279.214 0 .279l-3.771.857c-.279.086-.686-.043-.879-.257l-2.614-2.829c-.236-.236-.193-.343.086-.257zm4.478 12.857c.086.279-.107.45-.385.364l-7.736-2.4c-.279-.085-.343-.321-.129-.514L13.104 7.2c.214-.214.45-.129.514.15zM2.69 8.25L8.968 2.4c.214-.214.536-.171.75.021l3.15 3.408c.214.214.171.535-.022.75l-6.278 5.85c-.214.214-.536.171-.75-.022L2.668 9c-.214-.236-.193-.579.021-.75zm1.522 9.257l-1.65-7.286c-.086-.278.043-.342.235-.128l2.615 2.828c.214.215.278.622.214.9l-1.136 3.686c-.085.3-.214.3-.278 0zm9.193 4.286l-8.208-2.55a.555.555 0 01-.364-.686l1.372-4.414a.555.555 0 01.685-.364l8.207 2.528c.279.086.45.386.365.686l-1.372 4.414a.598.598 0 01-.685.386zm7.285-5.979l-5.485 5.1c-.215.215-.322.129-.236-.15l1.136-3.685c.085-.279.385-.579.685-.622l3.772-.857c.278-.107.321.021.128.214zm.6-1.114l-4.521 1.029c-.279.085-.579-.108-.643-.386l-1.929-8.357c-.085-.279.108-.579.386-.643l4.522-1.029c.278-.085.578.107.642.386l1.929 8.357c.064.322-.107.6-.386.643z"/>
  <path class="webpack" fill="none" d="M21.0157 18.1202L12.351 23v-3.8007l5.3986-2.9567 3.266 1.8776zm.5927-.5344V7.3805l-3.1708 1.822v6.5593l3.1708 1.824zm-18.6827.5344L11.5904 23v-3.8007l-5.3986-2.9567-3.266 1.8776zm-.5927-.5344V7.3805l3.1707 1.822v6.5593l-3.1707 1.824zm.371-10.8656l8.8864-5.0056v3.6748L5.8974 8.507l-.0434.0248-3.15-1.8116zm18.5335 0L12.351 1.7146v3.6748l5.693 3.1177.0434.0248 3.15-1.8116zm-9.647 11.6146l-5.3262-2.9155V9.642l5.326 3.062v5.6308zm.7605 0l5.326-2.9155V9.642l-5.326 3.062v5.6308zM6.625 8.9734l5.3467-2.928 5.3468 2.928-5.3468 3.0744L6.625 8.9734z"/>
  <path class="docker" fill="none" d="M4.82 17.275c-.684 0-1.304-.56-1.304-1.24s.56-1.243 1.305-1.243c.748 0 1.31.56 1.31 1.242s-.622 1.24-1.305 1.24zm16.012-6.763c-.135-.992-.75-1.8-1.56-2.42l-.315-.25-.254.31c-.494.56-.69 1.553-.63 2.295.06.562.24 1.12.554 1.554-.254.13-.568.25-.81.377-.57.187-1.124.25-1.68.25H.097l-.06.37c-.12 1.182.06 2.42.562 3.54l.244.435v.06c1.5 2.483 4.17 3.6 7.078 3.6 5.594 0 10.182-2.42 12.357-7.633 1.425.062 2.864-.31 3.54-1.676l.18-.31-.3-.187c-.81-.494-1.92-.56-2.85-.31l-.018.002zm-8.008-.992h-2.428v2.42h2.43V9.518l-.002.003zm0-3.043h-2.428v2.42h2.43V6.48l-.002-.003zm0-3.104h-2.428v2.42h2.43v-2.42h-.002zm2.97 6.147H13.38v2.42h2.42V9.518l-.007.003zm-8.998 0H4.383v2.42h2.422V9.518l-.01.003zm3.03 0h-2.4v2.42H9.84V9.518l-.015.003zm-6.03 0H1.4v2.42h2.428V9.518l-.03.003zm6.03-3.043h-2.4v2.42H9.84V6.48l-.015-.003zm-3.045 0H4.387v2.42H6.8V6.48l-.016-.003z"/>
  <path class="azure" fill="none" d="M5.483 21.3H24L14.025 4.013l-3.038 8.347 5.836 6.938L5.483 21.3zM13.23 2.7L6.105 8.677 0 19.253h5.505v.014L13.23 2.7z"/>
  <path class="stripe" fill="none" d="M13.976 9.15c-2.172-.806-3.356-1.426-3.356-2.409 0-.831.683-1.305 1.901-1.305 2.227 0 4.515.858 6.09 1.631l.89-5.494C18.252.975 15.697 0 12.165 0 9.667 0 7.589.654 6.104 1.872 4.56 3.147 3.757 4.992 3.757 7.218c0 4.039 2.467 5.76 6.476 7.219 2.585.92 3.445 1.574 3.445 2.583 0 .98-.84 1.545-2.354 1.545-1.875 0-4.965-.921-6.99-2.109l-.9 5.555C5.175 22.99 8.385 24 11.714 24c2.641 0 4.843-.624 6.328-1.813 1.664-1.305 2.525-3.236 2.525-5.732 0-4.128-2.524-5.851-6.594-7.305h.003z"/>
  <path class="coveralls" fill="none" d="M0 12v12h24V0H0zm13.195-6.187l1.167 3.515 2.255.005c1.238.005 2.916.019 3.727.037l1.472.028-2.968 2.152c-1.63 1.181-2.976 2.18-2.99 2.212-.01.033.487 1.627 1.106 3.54.619 1.917 1.12 3.487 1.116 3.492-.005.01-1.35-.947-2.986-2.119-1.636-1.177-3-2.147-3.033-2.161-.028-.01-1.411.947-3.07 2.138-1.655 1.185-3.02 2.151-3.024 2.142-.004-.005.497-1.575 1.116-3.492.619-1.913 1.115-3.507 1.106-3.54-.014-.032-1.36-1.03-2.99-2.212L2.23 9.398l1.472-.028c.811-.018 2.49-.032 3.727-.037l2.254-.005 1.168-3.515a512.54 512.54 0 011.171-3.516c.005 0 .53 1.58 1.172 3.516z"/>
  <path class="typescript" fill="none" d="M0 12v12h24V0H0zm19.341-.956c.61.152 1.074.423 1.501.865.221.236.549.666.575.77.008.03-1.036.73-1.668 1.123-.023.015-.115-.084-.217-.236-.31-.45-.633-.644-1.128-.678-.728-.05-1.196.331-1.192.967a.88.88 0 0 0 .102.45c.16.331.458.53 1.39.933 1.719.74 2.454 1.227 2.911 1.92.51.773.625 2.008.278 2.926-.38.998-1.325 1.676-2.655 1.9-.411.073-1.386.062-1.828-.018-.964-.172-1.878-.648-2.442-1.273-.221-.243-.652-.88-.625-.925.011-.016.11-.077.22-.141.108-.061.511-.294.892-.515l.69-.4.145.214c.202.308.643.731.91.872.766.404 1.817.347 2.335-.118a.883.883 0 0 0 .313-.72c0-.278-.035-.4-.18-.61-.186-.266-.567-.49-1.649-.96-1.238-.533-1.771-.864-2.259-1.39a3.165 3.165 0 0 1-.659-1.2c-.091-.339-.114-1.189-.042-1.531.255-1.197 1.158-2.03 2.461-2.278.423-.08 1.406-.05 1.821.053zm-5.634 1.002l.008.983H10.59v8.876H8.38v-8.876H5.258v-.964c0-.534.011-.98.026-.99.012-.016 1.913-.024 4.217-.02l4.195.012z"/>
  <path class="vscode" fill="none" d="M23.15 2.587L18.21.21a1.494 1.494 0 0 0-1.705.29l-9.46 8.63-4.12-3.128a.999.999 0 0 0-1.276.057L.327 7.261A1 1 0 0 0 .326 8.74L3.899 12 .326 15.26a1 1 0 0 0 .001 1.479L1.65 17.94a.999.999 0 0 0 1.276.057l4.12-3.128 9.46 8.63a1.492 1.492 0 0 0 1.704.29l4.942-2.377A1.5 1.5 0 0 0 24 20.06V3.939a1.5 1.5 0 0 0-.85-1.352zm-5.146 14.861L10.826 12l7.178-5.448v10.896z"/>
  <path class="letsencrypt" fill="none" d="M18.197 24H5.804a.965.965 0 0 1-.962-.962V13.87c0-.529.433-.962.962-.962h1.164v-1.482c0-2.775 2.258-5.032 5.032-5.032s5.032 2.258 5.032 5.032v1.482h1.164c.529 0 .962.433.962.962v9.168a.965.965 0 0 1-.962.962zm-5.569-5.072A1.274 1.274 0 0 0 12 16.544a1.275 1.275 0 0 0-.628 2.384v1.242a.628.628 0 1 0 1.256 0v-1.242zm-2.774-6.02h4.293v-1.482c0-1.183-.963-2.146-2.146-2.146s-2.146.963-2.146 2.146v1.482zM4.547 11.542h-2.99a.878.878 0 1 1 0-1.756h2.99a.878.878 0 1 1 0 1.756zM6.654 6.838a.87.87 0 0 1-.557-.2L3.732 4.693a.878.878 0 1 1 1.116-1.357l2.365 1.945a.878.878 0 0 1-.559 1.556zM12 4.77a.878.878 0 0 1-.878-.878V.878a.878.878 0 1 1 1.756 0v3.014A.878.878 0 0 1 12 4.77zM17.346 6.838a.877.877 0 0 1-.559-1.556l2.365-1.945a.878.878 0 0 1 1.116 1.357l-2.365 1.945a.876.876 0 0 1-.557.2zM22.443 11.542h-3.019a.878.878 0 1 1 0-1.756h3.019a.878.878 0 1 1 0 1.756z"/>
  <path class="googlecloud" fill="none" d="M12.19 2.38a9.344 9.344 0 0 0-9.234 6.893c.053-.02-.055.013 0 0-3.875 2.551-3.922 8.11-.247 10.941l.006-.007-.007.03a6.717 6.717 0 0 0 4.077 1.356h5.173l.03.03h5.192c6.687.053 9.376-8.605 3.835-12.35a9.365 9.365 0 0 0-2.821-4.552l-.043.043.006-.05A9.344 9.344 0 0 0 12.19 2.38zm-.358 4.146c1.244-.04 2.518.368 3.486 1.15a5.186 5.186 0 0 1 1.862 4.078v.518c3.53-.07 3.53 5.262 0 5.193h-5.193l-.008.009v-.04H6.785a2.59 2.59 0 0 1-1.067-.23h.001a2.597 2.597 0 1 1 3.437-3.437l3.013-3.012A6.747 6.747 0 0 0 8.11 8.24c.018-.01.04-.026.054-.023a5.186 5.186 0 0 1 3.67-1.69z"/>
  <path class="kubernetes" fill="none" d="M10.204 14.35l.007.01-.999 2.413a5.171 5.171 0 0 1-2.075-2.597l2.578-.437.004.005a.44.44 0 0 1 .484.606zm-.833-2.129a.44.44 0 0 0 .173-.756l.002-.011L7.585 9.7a5.143 5.143 0 0 0-.73 3.255l2.514-.725.002-.009zm1.145-1.98a.44.44 0 0 0 .699-.337l.01-.005.15-2.62a5.144 5.144 0 0 0-3.01 1.442l2.147 1.523.004-.002zm.76 2.75l.723.349.722-.347.18-.78-.5-.623h-.804l-.5.623.179.779zm1.5-3.095a.44.44 0 0 0 .7.336l.008.003 2.134-1.513a5.188 5.188 0 0 0-2.992-1.442l.148 2.615.002.001zm10.876 5.97l-5.773 7.181a1.6 1.6 0 0 1-1.248.594l-9.261.003a1.6 1.6 0 0 1-1.247-.596l-5.776-7.18a1.583 1.583 0 0 1-.307-1.34L2.1 5.573c.108-.47.425-.864.863-1.073L11.305.513a1.606 1.606 0 0 1 1.385 0l8.345 3.985c.438.209.755.604.863 1.073l2.062 8.955c.108.47-.005.963-.308 1.34zm-3.289-2.057c-.042-.01-.103-.026-.145-.034-.174-.033-.315-.025-.479-.038-.35-.037-.638-.067-.895-.148-.105-.04-.18-.165-.216-.216l-.201-.059a6.45 6.45 0 0 0-.105-2.332 6.465 6.465 0 0 0-.936-2.163c.052-.047.15-.133.177-.159.008-.09.001-.183.094-.282.197-.185.444-.338.743-.522.142-.084.273-.137.415-.242.032-.024.076-.062.11-.089.24-.191.295-.52.123-.736-.172-.216-.506-.236-.745-.045-.034.027-.08.062-.111.088-.134.116-.217.23-.33.35-.246.25-.45.458-.673.609-.097.056-.239.037-.303.033l-.19.135a6.545 6.545 0 0 0-4.146-2.003l-.012-.223c-.065-.062-.143-.115-.163-.25-.022-.268.015-.557.057-.905.023-.163.061-.298.068-.475.001-.04-.001-.099-.001-.142 0-.306-.224-.555-.5-.555-.275 0-.499.249-.499.555l.001.014c0 .041-.002.092 0 .128.006.177.044.312.067.475.042.348.078.637.056.906a.545.545 0 0 1-.162.258l-.012.211a6.424 6.424 0 0 0-4.166 2.003 8.373 8.373 0 0 1-.18-.128c-.09.012-.18.04-.297-.029-.223-.15-.427-.358-.673-.608-.113-.12-.195-.234-.329-.349-.03-.026-.077-.062-.111-.088a.594.594 0 0 0-.348-.132.481.481 0 0 0-.398.176c-.172.216-.117.546.123.737l.007.005.104.083c.142.105.272.159.414.242.299.185.546.338.743.522.076.082.09.226.1.288l.16.143a6.462 6.462 0 0 0-1.02 4.506l-.208.06c-.055.072-.133.184-.215.217-.257.081-.546.11-.895.147-.164.014-.305.006-.48.039-.037.007-.09.02-.133.03l-.004.002-.007.002c-.295.071-.484.342-.423.608.061.267.349.429.645.365l.007-.001.01-.003.129-.029c.17-.046.294-.113.448-.172.33-.118.604-.217.87-.256.112-.009.23.069.288.101l.217-.037a6.5 6.5 0 0 0 2.88 3.596l-.09.218c.033.084.069.199.044.282-.097.252-.263.517-.452.813-.091.136-.185.242-.268.399-.02.037-.045.095-.064.134-.128.275-.034.591.213.71.248.12.556-.007.69-.282v-.002c.02-.039.046-.09.062-.127.07-.162.094-.301.144-.458.132-.332.205-.68.387-.897.05-.06.13-.082.215-.105l.113-.205a6.453 6.453 0 0 0 4.609.012l.106.192c.086.028.18.042.256.155.136.232.229.507.342.84.05.156.074.295.145.457.016.037.043.09.062.129.133.276.442.402.69.282.247-.118.341-.435.213-.71-.02-.039-.045-.096-.065-.134-.083-.156-.177-.261-.268-.398-.19-.296-.346-.541-.443-.793-.04-.13.007-.21.038-.294-.018-.022-.059-.144-.083-.202a6.499 6.499 0 0 0 2.88-3.622c.064.01.176.03.213.038.075-.05.144-.114.28-.104.266.039.54.138.87.256.154.06.277.128.448.173.036.01.088.019.13.028l.009.003.007.001c.297.064.584-.098.645-.365.06-.266-.128-.537-.423-.608zM16.4 9.701l-1.95 1.746v.005a.44.44 0 0 0 .173.757l.003.01 2.526.728a5.199 5.199 0 0 0-.108-1.674A5.208 5.208 0 0 0 16.4 9.7zm-4.013 5.325a.437.437 0 0 0-.404-.232.44.44 0 0 0-.372.233h-.002l-1.268 2.292a5.164 5.164 0 0 0 3.326.003l-1.27-2.296h-.01zm1.888-1.293a.44.44 0 0 0-.27.036.44.44 0 0 0-.214.572l-.003.004 1.01 2.438a5.15 5.15 0 0 0 2.081-2.615l-2.6-.44-.004.005z"/>
  <path class="eslint" fill="none" d="M7.257 9.132L11.816 6.5a.369.369 0 0 1 .368 0l4.559 2.632a.369.369 0 0 1 .184.32v5.263a.37.37 0 0 1-.184.319l-4.559 2.632a.369.369 0 0 1-.368 0l-4.559-2.632a.369.369 0 0 1-.184-.32V9.452a.37.37 0 0 1 .184-.32M23.852 11.53l-5.446-9.475c-.198-.343-.564-.596-.96-.596H6.555c-.396 0-.762.253-.96.596L.149 11.509a1.127 1.127 0 0 0 0 1.117l5.447 9.398c.197.342.563.517.959.517h10.893c.395 0 .76-.17.959-.512l5.446-9.413a1.069 1.069 0 0 0 0-1.086m-4.51 4.556a.4.4 0 0 1-.204.338L12.2 20.426a.395.395 0 0 1-.392 0l-6.943-4.002a.4.4 0 0 1-.205-.338V8.08c0-.14.083-.269.204-.338L11.8 3.74c.12-.07.272-.07.392 0l6.943 4.003a.4.4 0 0 1 .206.338z"/>
  <path class="terraform" fill="none" d="M8.283 4.265l7.433 3.776v7.551l-7.433-3.776V4.265zm8.248 3.776v7.551l7.436-3.776V4.265l-7.436 3.776zM.035.051v7.551l7.433 3.776V3.827L.035.051zm8.248 20.141l7.433 3.776V16.42l-7.433-3.776v7.548z"/>
  <path class="redux" fill="none" d="M16.633 16.504c.869-.075 1.543-.84 1.499-1.754-.046-.914-.795-1.648-1.708-1.648h-.061c-.943.031-1.678.824-1.648 1.769.03.479.226.869.494 1.153-1.048 2.038-2.621 3.536-5.004 4.795-1.603.838-3.296 1.154-4.944.929-1.378-.194-2.456-.81-3.116-1.798-.988-1.499-1.078-3.116-.255-4.734.601-1.169 1.499-2.023 2.099-2.443-.15-.389-.33-1.048-.42-1.542-4.436 3.177-3.985 7.521-2.637 9.574 1.004 1.498 3.057 2.456 5.304 2.456.599 0 1.229-.044 1.843-.194 3.896-.749 6.847-3.086 8.54-6.532l.014-.031zM21.981 12.758c-2.321-2.727-5.738-4.225-9.634-4.225h-.51c-.253-.554-.837-.899-1.497-.899h-.045c-.943 0-1.678.81-1.647 1.753.03.898.794 1.648 1.708 1.648h.074c.675-.03 1.259-.45 1.498-1.049h.555c2.309 0 4.495.674 6.488 1.992 1.527 1.004 2.622 2.322 3.236 3.896.538 1.288.509 2.547-.045 3.597-.854 1.647-2.293 2.517-4.195 2.517-1.199 0-2.367-.375-2.967-.644-.359.298-.959.793-1.394 1.093 1.318.598 2.652.943 3.94.943 2.922 0 5.093-1.647 5.918-3.236.898-1.798.824-4.824-1.469-7.416l-.014.03zM6.49 17.042c.029.899.793 1.648 1.708 1.648h.06c.959-.03 1.693-.823 1.648-1.768 0-.899-.779-1.647-1.693-1.647h-.061c-.06 0-.149 0-.225.029-1.243-2.098-1.768-4.346-1.572-6.771.119-1.828.719-3.417 1.797-4.735.899-1.124 2.592-1.679 3.746-1.708 3.236-.061 4.585 3.971 4.689 5.574l1.498.449c-.345-4.914-3.4-7.492-6.322-7.492-2.742 0-5.273 1.993-6.293 4.915-1.393 3.896-.479 7.641 1.229 10.638-.149.195-.239.539-.209.868z"/>
  <path class="materialdesign" fill="none" d="M12 0C5.377 0 0 5.377 0 12s5.377 12 12 12 12-5.377 12-12S18.623 0 12 0zm0 .75c2.871 0 5.482 1.082 7.469 2.85H4.53A11.197 11.197 0 0 1 12 .75zm-7.186 3.6h14.372L12 18.723 4.814 4.35zM3.6 4.53V19.47A11.197 11.197 0 0 1 .75 12c0-2.87 1.082-5.481 2.85-7.468zm16.8 0A11.197 11.197 0 0 1 23.25 12c0 2.871-1.082 5.482-2.85 7.469V4.53zM4.35 5.1l7.275 14.55H4.35V5.1zm15.3 0v14.55h-7.275L19.651 5.1zM4.533 20.4H19.469A11.197 11.197 0 0 1 12 23.25a11.197 11.197 0 0 1-7.468-2.85z"/>
  <path class="aws" fill="none" d="M6.763 10.036c0 .296.032.535.088.71.064.176.144.368.256.576.04.063.056.127.056.183 0 .08-.048.16-.152.24l-.503.335a.383.383 0 0 1-.208.072c-.08 0-.16-.04-.239-.112a2.47 2.47 0 0 1-.287-.375 6.18 6.18 0 0 1-.248-.471c-.622.734-1.405 1.101-2.347 1.101-.67 0-1.205-.191-1.596-.574-.391-.384-.59-.894-.59-1.533 0-.678.239-1.23.726-1.644.487-.415 1.133-.623 1.955-.623.272 0 .551.024.846.064.296.04.6.104.918.176v-.583c0-.607-.127-1.03-.375-1.277-.255-.248-.686-.367-1.3-.367-.28 0-.568.031-.863.103-.295.072-.583.16-.862.272a2.287 2.287 0 0 1-.28.104.488.488 0 0 1-.127.023c-.112 0-.168-.08-.168-.247v-.391c0-.128.016-.224.056-.28a.597.597 0 0 1 .224-.167c.279-.144.614-.264 1.005-.36a4.84 4.84 0 0 1 1.246-.151c.95 0 1.644.216 2.091.647.439.43.662 1.085.662 1.963v2.586zm-3.24 1.214c.263 0 .534-.048.822-.144.287-.096.543-.271.758-.51.128-.152.224-.32.272-.512.047-.191.08-.423.08-.694v-.335a6.66 6.66 0 0 0-.735-.136 6.02 6.02 0 0 0-.75-.048c-.535 0-.926.104-1.19.32-.263.215-.39.518-.39.917 0 .375.095.655.295.846.191.2.47.296.838.296zm6.41.862c-.144 0-.24-.024-.304-.08-.064-.048-.12-.16-.168-.311L7.586 5.55a1.398 1.398 0 0 1-.072-.32c0-.128.064-.2.191-.2h.783c.151 0 .255.025.31.08.065.048.113.16.16.312l1.342 5.284 1.245-5.284c.04-.16.088-.264.151-.312a.549.549 0 0 1 .32-.08h.638c.152 0 .256.025.32.08.063.048.12.16.151.312l1.261 5.348 1.381-5.348c.048-.16.104-.264.16-.312a.52.52 0 0 1 .311-.08h.743c.127 0 .2.065.2.2 0 .04-.009.08-.017.128a1.137 1.137 0 0 1-.056.2l-1.923 6.17c-.048.16-.104.263-.168.311a.51.51 0 0 1-.303.08h-.687c-.151 0-.255-.024-.32-.08-.063-.056-.119-.16-.15-.32l-1.238-5.148-1.23 5.14c-.04.16-.087.264-.15.32-.065.056-.177.08-.32.08zm10.256.215c-.415 0-.83-.048-1.229-.143-.399-.096-.71-.2-.918-.32-.128-.071-.215-.151-.247-.223a.563.563 0 0 1-.048-.224v-.407c0-.167.064-.247.183-.247.048 0 .096.008.144.024.048.016.12.048.2.08.271.12.566.215.878.279.319.064.63.096.95.096.502 0 .894-.088 1.165-.264a.86.86 0 0 0 .415-.758.777.777 0 0 0-.215-.559c-.144-.151-.416-.287-.807-.415l-1.157-.36c-.583-.183-1.014-.454-1.277-.813a1.902 1.902 0 0 1-.4-1.158c0-.335.073-.63.216-.886.144-.255.335-.479.575-.654.24-.184.51-.32.83-.415.32-.096.655-.136 1.006-.136.175 0 .359.008.535.032.183.024.35.056.518.088.16.04.312.08.455.127.144.048.256.096.336.144a.69.69 0 0 1 .24.2.43.43 0 0 1 .071.263v.375c0 .168-.064.256-.184.256a.83.83 0 0 1-.303-.096 3.652 3.652 0 0 0-1.532-.311c-.455 0-.815.071-1.062.223-.248.152-.375.383-.375.71 0 .224.08.416.24.567.159.152.454.304.877.44l1.134.358c.574.184.99.44 1.237.767.247.327.367.702.367 1.117 0 .343-.072.655-.207.926-.144.272-.336.511-.583.703-.248.2-.543.343-.886.447-.36.111-.734.167-1.142.167zM21.698 16.207c-2.626 1.94-6.442 2.969-9.722 2.969-4.598 0-8.74-1.7-11.87-4.526-.247-.223-.024-.527.272-.351 3.384 1.963 7.559 3.153 11.877 3.153 2.914 0 6.114-.607 9.06-1.852.439-.2.814.287.383.607zM22.792 14.961c-.336-.43-2.22-.207-3.074-.103-.255.032-.295-.192-.063-.36 1.5-1.053 3.967-.75 4.254-.399.287.36-.08 2.826-1.485 4.007-.215.184-.423.088-.327-.151.32-.79 1.03-2.57.695-2.994z"/>
  <path class="github" fill="none" d="M12 .297c-6.63 0-12 5.373-12 12 0 5.303 3.438 9.8 8.205 11.385.6.113.82-.258.82-.577 0-.285-.01-1.04-.015-2.04-3.338.724-4.042-1.61-4.042-1.61C4.422 18.07 3.633 17.7 3.633 17.7c-1.087-.744.084-.729.084-.729 1.205.084 1.838 1.236 1.838 1.236 1.07 1.835 2.809 1.305 3.495.998.108-.776.417-1.305.76-1.605-2.665-.3-5.466-1.332-5.466-5.93 0-1.31.465-2.38 1.235-3.22-.135-.303-.54-1.523.105-3.176 0 0 1.005-.322 3.3 1.23.96-.267 1.98-.399 3-.405 1.02.006 2.04.138 3 .405 2.28-1.552 3.285-1.23 3.285-1.23.645 1.653.24 2.873.12 3.176.765.84 1.23 1.91 1.23 3.22 0 4.61-2.805 5.625-5.475 5.92.42.36.81 1.096.81 2.22 0 1.606-.015 2.896-.015 3.286 0 .315.21.69.825.57C20.565 22.092 24 17.592 24 12.297c0-6.627-5.373-12-12-12"/>
  <path class="socketio" fill="none" d="M11.936.016a12.17 12.17 0 0 0-2.975.378C4.281 1.557.567 5.797.091 10.604c-.59 4.549 1.708 9.286 5.644 11.635 3.861 2.418 9.093 2.32 12.874-.223 3.397-2.206 5.512-6.228 5.386-10.285-.058-4.016-2.31-7.917-5.759-9.98C16.354.59 14.143.007 11.936.016zm-.063 1.696c4.945-.007 9.789 3.814 10.282 8.925.945 5.66-3.753 11.413-9.488 11.58-5.454.544-10.725-4.08-10.88-9.557C1.38 8.226 4.303 3.825 8.485 2.36a9.113 9.113 0 0 1 3.388-.647zm5.091 3.225c-2.687 2.085-5.26 4.308-7.889 6.457 1.203.017 2.412.016 3.621.01 1.41-2.165 2.859-4.301 4.268-6.467zm-5.665 7.654c-1.41 2.166-2.86 4.309-4.27 6.474 2.693-2.08 5.255-4.32 7.902-6.456a255.425 255.425 0 0 0-3.632-.018z"/>
</svg>