<svg
   xmlns="http://www.w3.org/2000/svg"
   id="svg91"
   version="1.1"
   stroke-linejoin="round"
   stroke-linecap="round"
   stroke-width="1"
   stroke="currentColor"
   fill="none"
   viewBox="0 0 24 24"
   height="24"
   width="24">
  <path
     d="m 18.360001,5.6399999 1.42,-1.4200001 M 4.2199998,19.780001 l 1.4200001,-1.42 M 21,12 h 2 M 1,12 h 2 m 15.360001,6.360001 1.42,1.42 M 4.2199998,4.2199998 5.6399999,5.6399999 M 12,21 v 2 M 12,1 v 2 m 5,9 a 5,5 0 0 1 -5,5 5,5 0 0 1 -5,-5 5,5 0 0 1 5,-5 5,5 0 0 1 5,5 z"
/></svg>
