<svg xmlns="http://www.w3.org/2000/svg" viewBox="7 13.1 219.03 62.3" aria-labelledby="site-logo-title site-logo-desc">
    <title id="site-logo-title">Codepunkt</title>
    <desc id="site-logo-desc">Codepunkt written in cursive Kaushan Script font</desc>
    <path class="c" stroke="none" d="M7.38 46.18L7.38 46.18L7.38 46.18Q7.38 42.54 8.24 39.03L8.24 39.03L8.24 39.03Q9.10 35.52 10.66 32.37L10.66 32.37L10.66 32.37Q12.22 29.22 14.38 26.60L14.38 26.60L14.38 26.60Q16.54 23.97 19.11 22.05L19.11 22.05L19.11 22.05Q21.68 20.12 24.60 19.06L24.60 19.06L24.60 19.06Q27.51 17.99 30.58 17.99L30.58 17.99L30.58 17.99Q34.16 17.99 36.17 19.50L36.17 19.50L36.17 19.50Q38.17 21.01 38.17 23.71L38.17 23.71L38.17 23.71Q38.17 24.75 37.88 25.84L37.88 25.84L37.88 25.84Q37.60 26.94 37.05 28.00L37.05 28.00L37.05 28.00Q36.50 29.07 35.78 30.06L35.78 30.06L35.78 30.06Q35.05 31.04 34.16 31.77L34.16 31.77L34.16 31.77Q32.81 31.56 31.82 30.55L31.82 30.55L31.82 30.55Q30.84 29.54 30.58 28.18L30.58 28.18L30.58 28.18Q32.40 26.68 33.46 25.04L33.46 25.04L33.46 25.04Q34.53 23.40 34.53 22.05L34.53 22.05L34.53 22.05Q34.53 19.76 31.67 19.76L31.67 19.76L31.67 19.76Q30.47 19.76 29.20 20.25L29.20 20.25L29.20 20.25Q27.92 20.75 26.62 21.63L26.62 21.63L26.62 21.63Q25.32 22.52 24.10 23.76L24.10 23.76L24.10 23.76Q22.88 25.01 21.84 26.52L21.84 26.52L21.84 26.52Q14.61 36.92 14.61 47.79L14.61 47.79L14.61 47.79Q14.61 51.64 15.81 53.98L15.81 53.98L15.81 53.98Q17.00 56.32 18.98 56.73L18.98 56.73L18.98 56.73Q21.22 56.21 24.65 53.87L24.65 53.87L24.65 53.87Q28.08 51.53 32.14 47.79L32.14 47.79L32.14 47.79Q32.66 48.31 32.76 48.88L32.76 48.88L32.76 48.88Q31.25 50.86 29.64 52.68L29.64 52.68L29.64 52.68Q28.03 54.50 26.44 56.00L26.44 56.00L26.44 56.00Q24.86 57.51 23.32 58.66L23.32 58.66L23.32 58.66Q21.79 59.80 20.49 60.42L20.49 60.42L20.49 60.42Q14.04 60.32 10.71 56.73L10.71 56.73L10.71 56.73Q7.38 53.14 7.38 46.18Z"></path>
    <path class="o" stroke="none" d="M42.33 58.19L42.33 58.19L42.33 58.19Q39.36 57.88 37.60 55.59L37.60 55.59L37.60 55.59Q35.83 53.30 35.83 49.76L35.83 49.76L35.83 49.76Q35.83 47.68 36.45 45.45L36.45 45.45L36.45 45.45Q37.08 43.21 38.22 41.11L38.22 41.11L38.22 41.11Q39.36 39 40.92 37.13L40.92 37.13L40.92 37.13Q42.48 35.26 44.30 33.90L44.30 33.90L44.30 33.90Q47.16 31.77 49.66 31.77L49.66 31.77L49.66 31.77Q51.32 32.66 52.94 35.46L52.94 35.46L52.94 35.46Q53.20 35.46 53.40 35.44L53.40 35.44L53.40 35.44Q53.61 35.41 53.87 35.41L53.87 35.41L53.87 35.41Q56.63 35.41 56.63 40.30L56.63 40.30L56.63 40.30Q56.63 43.58 55.56 46.51L55.56 46.51L55.56 46.51Q54.50 49.45 52.60 51.84L52.60 51.84L52.60 51.84Q50.70 54.24 48.07 55.87L48.07 55.87L48.07 55.87Q45.45 57.51 42.33 58.19ZM44.98 41.81L44.98 41.81L44.98 41.81Q44.10 43.00 43.32 44.41L43.32 44.41L43.32 44.41Q42.54 45.81 41.96 47.24L41.96 47.24L41.96 47.24Q41.39 48.67 41.08 50.00L41.08 50.00L41.08 50.00Q40.77 51.32 40.77 52.36L40.77 52.36L40.77 52.36Q40.77 53.61 41.18 54.76L41.18 54.76L41.18 54.76Q41.60 55.90 42.12 56.06L42.12 56.06L42.12 56.06Q44.46 55.54 46.41 54.11L46.41 54.11L46.41 54.11Q48.36 52.68 49.79 50.54L49.79 50.54L49.79 50.54Q51.22 48.41 52.03 45.71L52.03 45.71L52.03 45.71Q52.83 43.00 52.83 39.94L52.83 39.94L52.83 39.94Q52.83 38.58 52.68 37.80L52.68 37.80L52.68 37.80Q52.52 37.02 52.16 36.45L52.16 36.45L52.16 36.45Q49.87 37.13 48.07 38.64L48.07 38.64L48.07 38.64Q46.28 40.14 44.98 41.81Z"></path>
    <path class="d" stroke="none" d="M70.46 32.08L70.46 32.08L70.46 32.08Q71.50 32.08 72.85 32.71L72.85 32.71L72.85 32.71Q74.20 33.33 75.24 34.32L75.24 34.32L75.24 34.32Q74.98 32.24 74.59 30.39L74.59 30.39L74.59 30.39Q74.20 28.55 73.45 26.57L73.45 26.57L73.45 26.57Q72.70 24.60 71.45 22.26L71.45 22.26L71.45 22.26Q70.20 19.92 68.33 16.90L68.33 16.90L68.33 16.90Q68.48 16.43 69.03 15.81L69.03 15.81L69.03 15.81Q69.58 15.18 70.28 14.64L70.28 14.64L70.28 14.64Q70.98 14.09 71.73 13.68L71.73 13.68L71.73 13.68Q72.49 13.26 73.16 13.16L73.16 13.16L73.16 13.16Q74.62 14.77 75.92 17.19L75.92 17.19L75.92 17.19Q77.22 19.60 78.21 22.39L78.21 22.39L78.21 22.39Q79.20 25.17 79.74 28.13L79.74 28.13L79.74 28.13Q80.29 31.10 80.29 33.80L80.29 33.80L80.29 33.80Q80.29 36.50 79.69 39.36L79.69 39.36L79.69 39.36Q79.09 42.22 78.03 44.95L78.03 44.95L78.03 44.95Q76.96 47.68 75.56 50.13L75.56 50.13L75.56 50.13Q74.15 52.57 72.51 54.50L72.51 54.50L72.51 54.50Q70.88 56.42 69.11 57.64L69.11 57.64L69.11 57.64Q67.34 58.86 65.57 59.18L65.57 59.18L65.57 59.18Q61.98 58.76 60.09 56.86L60.09 56.86L60.09 56.86Q58.19 54.96 58.19 51.64L58.19 51.64L58.19 51.64Q58.19 49.87 58.73 47.79L58.73 47.79L58.73 47.79Q59.28 45.71 60.19 43.65L60.19 43.65L60.19 43.65Q61.10 41.60 62.32 39.65L62.32 39.65L62.32 39.65Q63.54 37.70 64.92 36.14L64.92 36.14L64.92 36.14Q66.30 34.58 67.70 33.49L67.70 33.49L67.70 33.49Q69.11 32.40 70.46 32.08ZM65.16 57.10L65.16 57.10L65.16 57.10Q66.98 56.47 68.80 54.34L68.80 54.34L68.80 54.34Q70.62 52.21 72.07 49.32L72.07 49.32L72.07 49.32Q73.53 46.44 74.44 43.13L74.44 43.13L74.44 43.13Q75.35 39.83 75.35 36.76L75.35 36.76L75.35 36.76Q75.35 35.88 75.35 35.67L75.35 35.67L75.35 35.67Q75.35 35.46 75.30 35.26L75.30 35.26L75.30 35.26Q74.05 35.78 72.64 37.02L72.64 37.02L72.64 37.02Q71.24 38.27 69.84 39.91L69.84 39.91L69.84 39.91Q68.43 41.55 67.18 43.47L67.18 43.47L67.18 43.47Q65.94 45.40 64.95 47.32L64.95 47.32L64.95 47.32Q63.96 49.24 63.39 51.01L63.39 51.01L63.39 51.01Q62.82 52.78 62.82 54.13L62.82 54.13L62.82 54.13Q62.82 56.73 65.16 57.10Z"></path>
    <path class="e" stroke="none" d="M100.26 34.84L100.26 34.84L100.26 34.84Q100.05 38.06 99.11 40.38L99.11 40.38L99.11 40.38Q98.18 42.69 96.43 44.43L96.43 44.43L96.43 44.43Q94.69 46.18 92.20 47.58L92.20 47.58L92.20 47.58Q89.70 48.98 86.37 50.28L86.37 50.28L86.37 50.28Q86.37 50.60 86.35 50.93L86.35 50.93L86.35 50.93Q86.32 51.27 86.32 51.64L86.32 51.64L86.32 51.64Q86.32 52.31 86.42 53.04L86.42 53.04L86.42 53.04Q86.53 53.77 86.79 54.39L86.79 54.39L86.79 54.39Q87.05 55.02 87.52 55.41L87.52 55.41L87.52 55.41Q87.98 55.80 88.71 55.80L88.71 55.80L88.71 55.80Q90.12 55.80 91.47 55.17L91.47 55.17L91.47 55.17Q92.82 54.55 94.04 53.64L94.04 53.64L94.04 53.64Q95.26 52.73 96.33 51.66L96.33 51.66L96.33 51.66Q97.40 50.60 98.23 49.71L98.23 49.71L98.23 49.71Q98.75 50.18 99.11 50.60L99.11 50.60L99.11 50.60Q96.77 53.72 93.99 55.77L93.99 55.77L93.99 55.77Q91.21 57.82 88.71 58.40L88.71 58.40L88.71 58.40Q85.12 57.98 83.12 55.77L83.12 55.77L83.12 55.77Q81.12 53.56 81.12 50.44L81.12 50.44L81.12 50.44Q81.12 48.31 81.72 46.10L81.72 46.10L81.72 46.10Q82.32 43.89 83.38 41.83L83.38 41.83L83.38 41.83Q84.45 39.78 85.88 37.96L85.88 37.96L85.88 37.96Q87.31 36.14 88.95 34.79L88.95 34.79L88.95 34.79Q90.58 33.44 92.33 32.66L92.33 32.66L92.33 32.66Q94.07 31.88 95.78 31.88L95.78 31.88L95.78 31.88Q98.18 32.19 100.26 34.84ZM96.67 36.56L96.67 36.56L96.67 36.56Q95.26 36.76 93.76 37.70L93.76 37.70L93.76 37.70Q92.25 38.64 90.92 40.20L90.92 40.20L90.92 40.20Q89.60 41.76 88.50 43.84L88.50 43.84L88.50 43.84Q87.41 45.92 86.79 48.31L86.79 48.31L86.79 48.31Q90.95 46.23 93.70 43.19L93.70 43.19L93.70 43.19Q96.46 40.14 96.67 36.56Z"></path>
    <path class="p" stroke="none" d="M98.85 73.58L98.85 73.58L98.85 73.58Q98.12 73.37 98.02 72.02L98.02 72.02L98.02 72.02Q97.81 71.34 97.73 70.41L97.73 70.41L97.73 70.41Q97.66 69.47 97.66 68.28L97.66 68.28L97.66 68.28Q97.66 67.18 98.02 65.29L98.02 65.29L98.02 65.29Q98.38 63.39 99.03 61.00L99.03 61.00L99.03 61.00Q99.68 58.60 100.62 55.82L100.62 55.82L100.62 55.82Q101.56 53.04 102.70 50.18L102.70 50.18L102.70 50.18Q104.10 46.59 105.14 43.97L105.14 43.97L105.14 43.97Q106.18 41.34 106.89 39.42L106.89 39.42L106.89 39.42Q107.59 37.49 108.03 36.24L108.03 36.24L108.03 36.24Q108.47 35.00 108.73 34.11L108.73 34.11L108.73 34.11Q108.94 33.49 109.36 32.60L109.36 32.60L109.36 32.60Q109.77 31.72 110.32 30.81L110.32 30.81L110.32 30.81Q110.86 29.90 111.44 29.09L111.44 29.09L111.44 29.09Q112.01 28.29 112.48 27.87L112.48 27.87L112.48 27.87Q114.30 28.13 115.91 28.81L115.91 28.81L115.91 28.81Q117.52 29.48 117.88 30.11L117.88 30.11L117.88 30.11Q117.16 30.78 116.22 32.21L116.22 32.21L116.22 32.21Q115.28 33.64 114.40 35.33L114.40 35.33L114.40 35.33Q113.52 37.02 112.79 38.79L112.79 38.79L112.79 38.79Q112.06 40.56 111.70 41.91L111.70 41.91L111.70 41.91Q112.22 41.03 113.05 39.99L113.05 39.99L113.05 39.99Q113.88 38.95 115.60 37.13L115.60 37.13L115.60 37.13Q117.52 35.15 119.21 34.09L119.21 34.09L119.21 34.09Q120.90 33.02 122.15 33.02L122.15 33.02L122.15 33.02Q124.12 33.02 125.40 34.11L125.40 34.11L125.40 34.11Q126.67 35.20 126.67 36.92L126.67 36.92L126.67 36.92Q126.67 40.66 125.42 44.33L125.42 44.33L125.42 44.33Q124.18 48.00 121.84 50.96L121.84 50.96L121.84 50.96Q120.95 52.10 119.76 53.14L119.76 53.14L119.76 53.14Q118.56 54.18 117.26 54.99L117.26 54.99L117.26 54.99Q115.96 55.80 114.71 56.26L114.71 56.26L114.71 56.26Q113.46 56.73 112.48 56.73L112.48 56.73L112.48 56.73Q111.54 56.73 110.84 56.34L110.84 56.34L110.84 56.34Q110.14 55.95 109.88 55.38L109.88 55.38L109.88 55.38Q111.90 54.18 113.83 52.05L113.83 52.05L113.83 52.05Q115.75 49.92 117.39 47.14L117.39 47.14L117.39 47.14Q119.03 44.36 120.25 41.13L120.25 41.13L120.25 41.13Q121.47 37.91 122.10 34.58L122.10 34.58L122.10 34.58Q120.12 35.62 118.53 36.84L118.53 36.84L118.53 36.84Q116.95 38.06 115.39 40.04L115.39 40.04L115.39 40.04Q113.52 42.33 112.42 43.73L112.42 43.73L112.42 43.73Q111.33 45.14 110.63 46.12L110.63 46.12L110.63 46.12Q109.93 47.11 109.49 47.97L109.49 47.97L109.49 47.97Q109.04 48.83 108.52 50.08L108.52 50.08L108.52 50.08Q107.80 51.74 106.83 54.47L106.83 54.47L106.83 54.47Q105.87 57.20 104.86 60.58L104.86 60.58L104.86 60.58Q103.84 63.96 102.83 67.78L102.83 67.78L102.83 67.78Q101.82 71.60 100.88 75.40L100.88 75.40L100.88 75.40Q100.31 75.30 99.89 74.57L99.89 74.57L99.89 74.57Q99.48 74.10 99.29 73.89L99.29 73.89L99.29 73.89Q99.11 73.68 98.85 73.58Z"></path>
    <path class="u" stroke="none" d="M142.69 55.22L142.69 55.22L142.69 55.22Q141.70 54.39 141.36 53.14L141.36 53.14L141.36 53.14Q141.02 51.90 141.02 51.01L141.02 51.01L141.02 51.01Q141.02 49.92 141.28 49.14L141.28 49.14L141.28 49.14Q141.08 49.14 140.35 49.97L140.35 49.97L140.35 49.97Q139.62 50.80 138.76 51.95L138.76 51.95L138.76 51.95Q137.90 53.09 137.07 54.18L137.07 54.18L137.07 54.18Q136.24 55.28 135.82 55.80L135.82 55.80L135.82 55.80Q135.15 56.52 134.55 56.94L134.55 56.94L134.55 56.94Q133.95 57.36 133.59 57.41L133.59 57.41L133.59 57.41Q132.76 57.36 131.85 57.07L131.85 57.07L131.85 57.07Q130.94 56.78 130.13 56.26L130.13 56.26L130.13 56.26Q129.32 55.74 128.73 55.02L128.73 55.02L128.73 55.02Q128.13 54.29 127.92 53.35L127.92 53.35L127.92 53.35Q127.92 51.90 128.00 50.96L128.00 50.96L128.00 50.96Q128.08 50.02 128.34 48.93L128.34 48.93L128.34 48.93Q128.80 46.96 129.71 44.46L129.71 44.46L129.71 44.46Q130.62 41.96 131.82 39.55L131.82 39.55L131.82 39.55Q133.02 37.13 134.50 35.02L134.50 35.02L134.50 35.02Q135.98 32.92 137.64 31.72L137.64 31.72L137.64 31.72Q138.11 31.72 138.74 31.80L138.74 31.80L138.74 31.80Q139.36 31.88 140.01 32.08L140.01 32.08L140.01 32.08Q140.66 32.29 141.26 32.58L141.26 32.58L141.26 32.58Q141.86 32.86 142.27 33.33L142.27 33.33L142.27 33.33Q141.80 33.85 139.91 36.82L139.91 36.82L139.91 36.82Q138.01 39.78 135.67 45.34L135.67 45.34L135.67 45.34Q135.41 45.92 135.04 47.01L135.04 47.01L135.04 47.01Q134.68 48.10 134.32 49.30L134.32 49.30L134.32 49.30Q133.95 50.49 133.72 51.64L133.72 51.64L133.72 51.64Q133.48 52.78 133.48 53.46L133.48 53.46L133.48 53.46Q133.48 53.87 133.61 54.08L133.61 54.08L133.61 54.08Q133.74 54.29 133.85 54.39L133.85 54.39L133.85 54.39Q134.63 54.08 135.82 52.68L135.82 52.68L135.82 52.68Q137.02 51.27 139.15 48.36L139.15 48.36L139.15 48.36Q139.67 47.63 140.37 46.70L140.37 46.70L140.37 46.70Q141.08 45.76 141.80 44.69L141.80 44.69L141.80 44.69Q142.53 43.63 143.18 42.48L143.18 42.48L143.18 42.48Q143.83 41.34 144.25 40.20L144.25 40.20L144.25 40.20Q144.46 39.57 144.79 38.71L144.79 38.71L144.79 38.71Q145.13 37.86 145.63 36.92L145.63 36.92L145.63 36.92Q146.12 35.98 146.77 35.02L146.77 35.02L146.77 35.02Q147.42 34.06 148.30 33.23L148.30 33.23L148.30 33.23Q148.98 33.23 149.76 33.38L149.76 33.38L149.76 33.38Q150.54 33.54 151.24 33.77L151.24 33.77L151.24 33.77Q151.94 34.01 152.46 34.29L152.46 34.29L152.46 34.29Q152.98 34.58 153.24 34.89L153.24 34.89L153.24 34.89Q152.31 37.18 151.16 39.42L151.16 39.42L151.16 39.42Q150.02 41.65 149.03 43.81L149.03 43.81L149.03 43.81Q148.04 45.97 147.37 48.10L147.37 48.10L147.37 48.10Q146.69 50.23 146.69 52.26L146.69 52.26L146.69 52.26Q146.69 53.35 146.87 54.16L146.87 54.16L146.87 54.16Q147.06 54.96 147.26 55.51L147.26 55.51L147.26 55.51Q147.47 56.06 147.65 56.42L147.65 56.42L147.65 56.42Q147.84 56.78 147.84 57.04L147.84 57.04L147.84 57.04Q147.84 57.10 147.73 57.20L147.73 57.20L147.73 57.20Q147.68 57.25 147.63 57.25L147.63 57.25L147.63 57.25Q147.26 57.25 146.69 57.10L146.69 57.10L146.69 57.10Q146.12 56.94 145.42 56.65L145.42 56.65L145.42 56.65Q144.72 56.37 144.01 56.00L144.01 56.00L144.01 56.00Q143.31 55.64 142.69 55.22Z"></path>
    <path class="n" stroke="none" d="M162.66 31.15L162.66 31.15L162.66 31.15Q164.01 31.56 165.20 32.99L165.20 32.99L165.20 32.99Q166.40 34.42 166.97 36.14L166.97 36.14L166.97 36.14Q166.40 37.54 165.20 39.52L165.20 39.52L165.20 39.52Q164.01 41.50 162.81 43.55L162.81 43.55L162.81 43.55Q161.62 45.60 160.65 47.45L160.65 47.45L160.65 47.45Q159.69 49.30 159.54 50.49L159.54 50.49L159.54 50.49Q160.37 49.61 161.38 48.44L161.38 48.44L161.38 48.44Q162.40 47.27 163.36 46.10L163.36 46.10L163.36 46.10Q164.32 44.93 165.15 43.97L165.15 43.97L165.15 43.97Q165.98 43.00 166.45 42.54L166.45 42.54L166.45 42.54Q167.44 41.50 168.79 40.12L168.79 40.12L168.79 40.12Q170.14 38.74 171.63 37.52L171.63 37.52L171.63 37.52Q173.11 36.30 174.62 35.44L174.62 35.44L174.62 35.44Q176.12 34.58 177.37 34.58L177.37 34.58L177.37 34.58Q178.72 34.58 179.63 35.49L179.63 35.49L179.63 35.49Q180.54 36.40 181.06 37.39L181.06 37.39L181.06 37.39Q181.06 37.49 180.67 37.67L180.67 37.67L180.67 37.67Q180.28 37.86 179.56 38.69L179.56 38.69L179.56 38.69Q178.83 39.62 177.92 41.26L177.92 41.26L177.92 41.26Q177.01 42.90 176.15 44.80L176.15 44.80L176.15 44.80Q175.29 46.70 174.72 48.67L174.72 48.67L174.72 48.67Q174.15 50.65 174.15 52.26L174.15 52.26L174.15 52.26Q174.15 53.56 174.49 53.92L174.49 53.92L174.49 53.92Q174.82 54.29 175.45 54.29L175.45 54.29L175.45 54.29Q176.02 54.29 176.64 54.03L176.64 54.03L176.64 54.03Q177.27 53.77 177.63 53.77L177.63 53.77L177.63 53.77Q177.84 53.87 177.97 54.21L177.97 54.21L177.97 54.21Q178.10 54.55 178.10 54.81L178.10 54.81L178.10 54.81Q177.68 55.17 177.11 55.54L177.11 55.54L177.11 55.54Q176.54 55.90 175.92 56.21L175.92 56.21L175.92 56.21Q175.29 56.52 174.69 56.73L174.69 56.73L174.69 56.73Q174.10 56.94 173.63 56.94L173.63 56.94L173.63 56.94Q172.12 56.94 171.16 56.50L171.16 56.50L171.16 56.50Q170.20 56.06 169.65 55.33L169.65 55.33L169.65 55.33Q169.10 54.60 168.90 53.59L168.90 53.59L168.90 53.59Q168.69 52.57 168.69 51.43L168.69 51.43L168.69 51.43Q168.69 50.80 168.79 50.02L168.79 50.02L168.79 50.02Q168.90 49.24 169.21 48.18L169.21 48.18L169.21 48.18Q169.52 47.11 170.09 45.63L170.09 45.63L170.09 45.63Q170.66 44.15 171.55 42.07L171.55 42.07L171.55 42.07Q171.44 42.07 170.14 42.80L170.14 42.80L170.14 42.80Q168.84 43.52 167.34 45.03L167.34 45.03L167.34 45.03Q164.89 47.37 162.94 49.66L162.94 49.66L162.94 49.66Q160.99 51.95 158.96 54.76L158.96 54.76L158.96 54.76Q157.82 56.37 156.96 57.49L156.96 57.49L156.96 57.49Q156.10 58.60 155.48 58.97L155.48 58.97L155.48 58.97Q154.39 58.34 153.87 57.23L153.87 57.23L153.87 57.23Q153.35 56.11 153.09 54.91L153.09 54.91L153.09 54.91Q153.09 53.92 153.37 52.42L153.37 52.42L153.37 52.42Q153.66 50.91 154.15 49.06L154.15 49.06L154.15 49.06Q154.65 47.22 155.38 45.19L155.38 45.19L155.38 45.19Q156.10 43.16 156.99 41.13L156.99 41.13L156.99 41.13Q158.96 36.56 160.60 33.96L160.60 33.96L160.60 33.96Q162.24 31.36 162.66 31.15Z"></path>
    <path class="k" stroke="none" d="M182.42 51.48L182.42 51.48L182.42 51.48Q182.42 49.61 183.38 46.28L183.38 46.28L183.38 46.28Q184.34 42.95 185.90 39L185.90 39L185.90 39Q187.46 35.05 189.44 30.84L189.44 30.84L189.44 30.84Q191.41 26.62 193.41 22.98L193.41 22.98L193.41 22.98Q195.42 19.34 197.26 16.69L197.26 16.69L197.26 16.69Q199.11 14.04 200.41 13.10L200.41 13.10L200.41 13.10Q201.14 13.16 201.99 13.73L201.99 13.73L201.99 13.73Q202.85 14.30 203.58 15.11L203.58 15.11L203.58 15.11Q204.31 15.91 204.80 16.80L204.80 16.80L204.80 16.80Q205.30 17.68 205.30 18.41L205.30 18.41L205.30 18.41Q202.96 20.28 200.54 23.22L200.54 23.22L200.54 23.22Q198.12 26.16 195.94 29.67L195.94 29.67L195.94 29.67Q193.75 33.18 191.91 37.10L191.91 37.10L191.91 37.10Q190.06 41.03 188.81 44.82L188.81 44.82L188.81 44.82Q190.48 41.96 192.30 39.62L192.30 39.62L192.30 39.62Q194.12 37.28 195.94 35.62L195.94 35.62L195.94 35.62Q197.76 33.96 199.50 33.05L199.50 33.05L199.50 33.05Q201.24 32.14 202.80 32.08L202.80 32.08L202.80 32.08Q205.09 33.75 205.09 36.50L205.09 36.50L205.09 36.50Q205.09 38.17 204.41 39.86L204.41 39.86L204.41 39.86Q203.74 41.55 202.62 42.98L202.62 42.98L202.62 42.98Q201.50 44.41 200.07 45.42L200.07 45.42L200.07 45.42Q198.64 46.44 197.08 46.75L197.08 46.75L197.08 46.75Q197.60 48.57 198.41 50.44L198.41 50.44L198.41 50.44Q199.21 52.31 200.33 54.08L200.33 54.08L200.33 54.08Q201.45 55.85 202.88 57.36L202.88 57.36L202.88 57.36Q204.31 58.86 206.13 59.90L206.13 59.90L206.13 59.90Q205.87 60.42 205.35 60.94L205.35 60.94L205.35 60.94Q204.83 61.46 204.10 61.85L204.10 61.85L204.10 61.85Q203.37 62.24 202.51 62.48L202.51 62.48L202.51 62.48Q201.66 62.71 200.82 62.71L200.82 62.71L200.82 62.71Q199.42 62.71 198.20 61.31L198.20 61.31L198.20 61.31Q196.98 59.90 195.99 57.25L195.99 57.25L195.99 57.25Q195.21 55.12 194.48 52.16L194.48 52.16L194.48 52.16Q193.75 49.19 193.18 45.97L193.18 45.97L193.18 45.97Q193.91 45.50 195.00 44.59L195.00 44.59L195.00 44.59Q196.09 43.68 197.29 42.48L197.29 42.48L197.29 42.48Q201.86 38.06 201.86 34.84L201.86 34.84L201.86 34.84Q201.86 34.42 201.29 34.42L201.29 34.42L201.29 34.42Q200.25 34.48 198.85 35.41L198.85 35.41L198.85 35.41Q197.44 36.35 195.86 38.01L195.86 38.01L195.86 38.01Q194.27 39.68 192.63 41.91L192.63 41.91L192.63 41.91Q191.00 44.15 189.49 46.75L189.49 46.75L189.49 46.75Q188.86 47.79 188.34 49.14L188.34 49.14L188.34 49.14Q187.82 50.49 187.43 51.92L187.43 51.92L187.43 51.92Q187.04 53.35 186.84 54.76L186.84 54.76L186.84 54.76Q186.63 56.16 186.63 57.36L186.63 57.36L186.63 57.36Q186.63 58.08 186.78 58.55L186.78 58.55L186.78 58.55Q185.17 58.40 184.81 57.72L184.81 57.72L184.81 57.72Q184.39 57.10 184.11 56.71L184.11 56.71L184.11 56.71Q183.82 56.32 183.51 56.06L183.51 56.06L183.51 56.06Q183.04 55.69 182.73 54.50L182.73 54.50L182.73 54.50Q182.42 53.30 182.42 51.48Z"></path>
    <path class="t" stroke="none" d="M213.51 36.45L210.55 36.45L210.55 36.45Q210.29 36.14 210.08 35.13L210.08 35.13L210.08 35.13Q209.87 34.11 209.87 33.38L209.87 33.38L209.87 33.38Q211.22 33.49 212.47 33.57L212.47 33.57L212.47 33.57Q213.72 33.64 214.76 33.70L214.76 33.70L214.76 33.70Q215.54 32.14 216.45 30.60L216.45 30.60L216.45 30.60Q217.36 29.07 218.22 27.79L218.22 27.79L218.22 27.79Q219.08 26.52 219.83 25.64L219.83 25.64L219.83 25.64Q220.58 24.75 221.00 24.49L221.00 24.49L221.00 24.49Q221.52 24.49 222.33 24.67L222.33 24.67L222.33 24.67Q223.13 24.86 223.96 25.14L223.96 25.14L223.96 25.14Q224.80 25.43 225.47 25.74L225.47 25.74L225.47 25.74Q226.15 26.05 226.41 26.36L226.41 26.36L226.41 26.36Q224.85 28.34 223.73 30.03L223.73 30.03L223.73 30.03Q222.61 31.72 221.31 33.90L221.31 33.90L221.31 33.90Q222.35 33.90 223.42 33.85L223.42 33.85L223.42 33.85Q224.48 33.80 225.58 33.70L225.58 33.70L225.58 33.70Q225.84 33.96 225.99 34.35L225.99 34.35L225.99 34.35Q226.15 34.74 226.15 35.15L226.15 35.15L226.15 35.15Q223.60 36.09 219.96 36.19L219.96 36.19L219.96 36.19Q218.66 38.69 217.65 41.16L217.65 41.16L217.65 41.16Q216.63 43.63 215.93 45.92L215.93 45.92L215.93 45.92Q215.23 48.20 214.84 50.23L214.84 50.23L214.84 50.23Q214.45 52.26 214.45 53.87L214.45 53.87L214.45 53.87Q214.45 56.16 216.16 56.42L216.16 56.42L216.16 56.42Q217.72 56.21 219.13 55.64L219.13 55.64L219.13 55.64Q220.53 55.07 221.62 54.18L221.62 54.18L221.62 54.18Q221.94 54.65 221.99 54.96L221.99 54.96L221.99 54.96Q221.68 55.43 220.92 56.06L220.92 56.06L220.92 56.06Q220.17 56.68 219.28 57.28L219.28 57.28L219.28 57.28Q218.40 57.88 217.57 58.29L217.57 58.29L217.57 58.29Q216.74 58.71 216.32 58.76L216.32 58.76L216.32 58.76Q215.02 58.71 213.72 58.19L213.72 58.19L213.72 58.19Q212.42 57.67 211.35 56.89L211.35 56.89L211.35 56.89Q210.29 56.11 209.61 55.15L209.61 55.15L209.61 55.15Q208.94 54.18 208.94 53.25L208.94 53.25L208.94 53.25Q208.94 52 209.27 50.10L209.27 50.10L209.27 50.10Q209.61 48.20 210.24 45.97L210.24 45.97L210.24 45.97Q210.86 43.73 211.69 41.29L211.69 41.29L211.69 41.29Q212.52 38.84 213.51 36.45L213.51 36.45Z"></path>
    <text y="24" x="3" fill="rgba(255, 255, 255, 0.0001)" transform="scale(2.28)">Codepunkt</text>
</svg>